# 3ds Max Wavefront OBJ Exporter v0.97b - (c)2007 guruware
# 创建的文件:02.06.2017 11:01:59

mtllib 履带轮.mtl

#
# object 对象001
#

v  80.0000 0.0000 -249.0001
v  75.1754 27.3616 -249.0001
v  75.1754 27.3616 -150.0001
v  80.0000 0.0000 -150.0001
v  61.2836 51.4230 -249.0001
v  61.2836 51.4230 -150.0001
v  40.0000 69.2820 -249.0001
v  40.0000 69.2820 -150.0001
v  13.8918 78.7846 -249.0001
v  13.8918 78.7846 -150.0001
v  -13.8918 78.7846 -249.0001
v  -13.8918 78.7846 -150.0001
v  -40.0000 69.2820 -249.0001
v  -40.0000 69.2820 -150.0001
v  -61.2836 51.4230 -249.0001
v  -61.2836 51.4230 -150.0001
v  -75.1754 27.3616 -249.0001
v  -75.1754 27.3616 -150.0001
v  -80.0000 0.0000 -249.0001
v  -80.0000 0.0000 -150.0001
v  -75.1754 -27.3616 -249.0001
v  -75.1754 -27.3616 -150.0001
v  -61.2836 -51.4230 -249.0001
v  -61.2836 -51.4230 -150.0001
v  -40.0000 -69.2820 -249.0001
v  -40.0000 -69.2820 -150.0001
v  -13.8919 -78.7846 -249.0001
v  -13.8919 -78.7846 -150.0001
v  13.8918 -78.7846 -249.0001
v  13.8918 -78.7846 -150.0001
v  40.0000 -69.2820 -249.0001
v  40.0000 -69.2820 -150.0001
v  61.2836 -51.4230 -249.0001
v  61.2836 -51.4230 -150.0001
v  75.1754 -27.3616 -249.0001
v  75.1754 -27.3616 -150.0001
v  75.1754 27.3616 -50.0001
v  80.0000 0.0000 -50.0001
v  61.2836 51.4230 -50.0001
v  40.0000 69.2820 -50.0001
v  13.8918 78.7846 -50.0001
v  -13.8918 78.7846 -50.0001
v  -40.0000 69.2820 -50.0001
v  -61.2836 51.4230 -50.0001
v  -75.1754 27.3616 -50.0001
v  -80.0000 0.0000 -50.0001
v  -75.1754 -27.3616 -50.0001
v  -61.2836 -51.4230 -50.0001
v  -40.0000 -69.2820 -50.0001
v  -13.8919 -78.7846 -50.0001
v  13.8918 -78.7846 -50.0001
v  40.0000 -69.2820 -50.0001
v  61.2836 -51.4230 -50.0001
v  75.1754 -27.3617 -50.0001
v  75.1754 27.3616 50.0000
v  80.0000 0.0000 50.0000
v  61.2836 51.4230 50.0000
v  40.0000 69.2820 50.0000
v  13.8918 78.7846 50.0000
v  -13.8918 78.7846 50.0000
v  -40.0000 69.2820 50.0000
v  -61.2836 51.4230 50.0000
v  -75.1754 27.3616 50.0000
v  -80.0000 0.0000 50.0000
v  -75.1754 -27.3616 50.0000
v  -61.2836 -51.4230 50.0000
v  -40.0000 -69.2820 50.0000
v  -13.8919 -78.7846 50.0000
v  13.8918 -78.7846 50.0000
v  40.0000 -69.2821 50.0000
v  61.2836 -51.4230 50.0000
v  75.1754 -27.3617 50.0000
v  75.1754 27.3616 150.0000
v  80.0000 0.0000 150.0000
v  61.2836 51.4230 150.0000
v  40.0000 69.2820 150.0000
v  13.8918 78.7846 150.0000
v  -13.8918 78.7846 150.0000
v  -40.0000 69.2820 150.0000
v  -61.2836 51.4230 150.0000
v  -75.1754 27.3616 150.0000
v  -80.0000 0.0000 150.0000
v  -75.1754 -27.3616 150.0000
v  -61.2836 -51.4230 150.0000
v  -40.0000 -69.2820 150.0000
v  -13.8919 -78.7846 150.0000
v  13.8918 -78.7846 150.0000
v  40.0000 -69.2821 150.0000
v  61.2836 -51.4230 150.0000
v  75.1754 -27.3617 150.0000
v  75.1754 27.3616 249.0000
v  80.0000 -0.0000 249.0000
v  61.2836 51.4230 249.0000
v  40.0000 69.2820 249.0000
v  13.8918 78.7846 249.0000
v  -13.8918 78.7846 249.0000
v  -40.0000 69.2820 249.0000
v  -61.2836 51.4230 249.0000
v  -75.1754 27.3616 249.0000
v  -80.0000 0.0000 249.0000
v  -75.1754 -27.3616 249.0000
v  -61.2836 -51.4230 249.0000
v  -40.0000 -69.2820 249.0000
v  -13.8919 -78.7846 249.0000
v  13.8918 -78.7846 249.0000
v  40.0000 -69.2821 249.0000
v  61.2836 -51.4231 249.0000
v  75.1754 -27.3617 249.0000
v  60.5057 -50.7703 -250.0001
v  39.4923 -68.4027 -250.0001
v  13.7155 -77.7846 -250.0001
v  78.9846 0.0000 -250.0001
v  -13.7156 -77.7846 -250.0001
v  -39.4923 -68.4026 -250.0001
v  -74.2213 -27.0143 -250.0001
v  -60.5057 -50.7703 -250.0001
v  -78.9846 0.0000 -250.0001
v  -74.2213 27.0143 -250.0001
v  -39.4923 68.4026 -250.0001
v  -60.5057 50.7703 -250.0001
v  -13.7155 77.7846 -250.0001
v  13.7155 77.7846 -250.0001
v  60.5057 50.7703 -250.0001
v  39.4923 68.4027 -250.0001
v  74.2212 27.0143 -250.0001
v  74.2212 -27.0144 -250.0001
v  74.2212 27.0143 250.0000
v  60.5057 50.7703 250.0000
v  39.4923 68.4026 250.0000
v  74.2212 -27.0144 250.0000
v  13.7155 77.7846 250.0000
v  -13.7155 77.7846 250.0000
v  -60.5057 50.7703 250.0000
v  -39.4923 68.4026 250.0000
v  -74.2213 27.0143 250.0000
v  -78.9846 0.0000 250.0000
v  -60.5057 -50.7703 250.0000
v  -74.2213 -27.0143 250.0000
v  -39.4923 -68.4026 250.0000
v  -13.7156 -77.7846 250.0000
v  39.4923 -68.4027 250.0000
v  13.7155 -77.7846 250.0000
v  60.5057 -50.7704 250.0000
v  78.9846 -0.0000 250.0000
v  74.9369 27.2748 -249.7501
v  79.7461 0.0000 -249.7501
v  61.0891 51.2599 -249.7501
v  39.8730 69.0622 -249.7501
v  13.8478 78.5346 -249.7501
v  -13.8478 78.5346 -249.7501
v  -39.8730 69.0622 -249.7501
v  -61.0891 51.2599 -249.7501
v  -74.9369 27.2748 -249.7501
v  -79.7462 0.0000 -249.7501
v  -74.9369 -27.2748 -249.7501
v  -61.0891 -51.2598 -249.7501
v  -39.8730 -69.0621 -249.7501
v  -13.8478 -78.5346 -249.7501
v  13.8478 -78.5346 -249.7501
v  39.8730 -69.0622 -249.7501
v  61.0891 -51.2599 -249.7501
v  74.9369 -27.2748 -249.7501
v  79.7461 -0.0000 249.7500
v  74.9369 27.2748 249.7500
v  61.0891 51.2598 249.7500
v  39.8730 69.0622 249.7500
v  13.8478 78.5346 249.7500
v  -13.8478 78.5346 249.7500
v  -39.8730 69.0622 249.7500
v  -61.0891 51.2598 249.7500
v  -74.9369 27.2748 249.7500
v  -79.7462 0.0000 249.7500
v  -74.9369 -27.2748 249.7500
v  -61.0891 -51.2598 249.7500
v  -39.8730 -69.0622 249.7500
v  -13.8478 -78.5346 249.7500
v  13.8478 -78.5346 249.7500
v  39.8730 -69.0622 249.7500
v  61.0891 -51.2599 249.7500
v  74.9369 -27.2748 249.7500
# 180 vertices

vn 1.0000 0.0000 -0.0000
vn 0.9397 0.3420 0.0000
vn 1.0000 0.0000 0.0000
vn 0.7660 0.6428 0.0000
vn 0.5000 0.8660 -0.0000
vn 0.5000 0.8660 0.0000
vn 0.1736 0.9848 -0.0000
vn -0.1736 0.9848 -0.0000
vn -0.5000 0.8660 0.0000
vn -0.5000 0.8660 -0.0000
vn -0.7660 0.6428 0.0000
vn -0.9397 0.3420 0.0000
vn -1.0000 0.0000 0.0000
vn -1.0000 -0.0000 -0.0000
vn -0.9397 -0.3420 -0.0000
vn -0.7660 -0.6428 -0.0000
vn -0.5000 -0.8660 -0.0000
vn -0.1736 -0.9848 -0.0000
vn 0.1736 -0.9848 -0.0000
vn 0.5000 -0.8660 -0.0000
vn 0.7660 -0.6428 -0.0000
vn 0.9397 -0.3420 -0.0000
vn 0.1736 0.9848 0.0000
vn -0.1736 0.9848 0.0000
vn 0.0000 0.0000 -1.0000
vn 0.0000 0.0000 1.0000
vn 0.9343 0.1647 -0.3162
vn 0.8216 0.4743 -0.3162
vn 0.6098 0.7267 -0.3162
vn 0.3245 0.8915 -0.3162
vn 0.0000 0.9487 -0.3162
vn -0.3245 0.8915 -0.3162
vn -0.6098 0.7267 -0.3162
vn -0.8216 0.4743 -0.3162
vn -0.9343 0.1647 -0.3162
vn -0.9343 -0.1647 -0.3162
vn -0.8216 -0.4743 -0.3162
vn -0.6098 -0.7267 -0.3162
vn -0.3245 -0.8915 -0.3162
vn 0.0000 -0.9487 -0.3162
vn 0.3245 -0.8915 -0.3162
vn 0.6098 -0.7267 -0.3162
vn 0.8216 -0.4743 -0.3162
vn 0.9343 -0.1647 -0.3162
vn 0.9343 0.1647 0.3162
vn 0.8216 0.4743 0.3162
vn 0.6098 0.7267 0.3162
vn 0.3245 0.8915 0.3162
vn 0.0000 0.9487 0.3162
vn -0.3245 0.8915 0.3162
vn -0.6098 0.7267 0.3162
vn -0.8216 0.4743 0.3162
vn -0.9343 0.1647 0.3162
vn -0.9343 -0.1647 0.3162
vn -0.8216 -0.4743 0.3162
vn -0.6098 -0.7267 0.3162
vn -0.3245 -0.8915 0.3162
vn -0.0000 -0.9487 0.3162
vn 0.3245 -0.8915 0.3162
vn 0.6098 -0.7267 0.3162
vn 0.8216 -0.4743 0.3162
vn 0.9343 -0.1647 0.3162
vn 0.3114 0.0549 -0.9487
vn 0.2739 0.1581 -0.9487
vn 0.2033 0.2423 -0.9487
vn 0.1082 0.2972 -0.9487
vn 0.0000 0.3162 -0.9487
vn -0.1082 0.2972 -0.9487
vn -0.2033 0.2423 -0.9487
vn -0.2739 0.1581 -0.9487
vn -0.3114 0.0549 -0.9487
vn -0.3114 -0.0549 -0.9487
vn -0.2739 -0.1581 -0.9487
vn -0.2033 -0.2423 -0.9487
vn -0.1082 -0.2972 -0.9487
vn 0.0000 -0.3162 -0.9487
vn 0.1082 -0.2972 -0.9487
vn 0.2033 -0.2423 -0.9487
vn 0.2739 -0.1581 -0.9487
vn 0.3114 -0.0549 -0.9487
vn 0.3114 0.0549 0.9487
vn 0.2739 0.1581 0.9487
vn 0.2033 0.2423 0.9487
vn 0.1082 0.2972 0.9487
vn 0.0000 0.3162 0.9487
vn -0.1082 0.2972 0.9487
vn -0.2033 0.2423 0.9487
vn -0.2739 0.1581 0.9487
vn -0.3114 0.0549 0.9487
vn -0.3114 -0.0549 0.9487
vn -0.2739 -0.1581 0.9487
vn -0.2033 -0.2423 0.9487
vn -0.1082 -0.2972 0.9487
vn -0.0000 -0.3162 0.9487
vn 0.1082 -0.2972 0.9487
vn 0.2033 -0.2423 0.9487
vn 0.2739 -0.1581 0.9487
vn 0.3114 -0.0549 0.9487
# 98 vertex normals

vt 0.5054 0.6646 0.0000
vt 0.4706 0.6646 0.0000
vt 0.4706 0.5386 0.0000
vt 0.5054 0.5386 0.0000
vt 0.4399 0.6646 0.0000
vt 0.4399 0.5386 0.0000
vt 0.0219 0.0229 0.0000
vt 0.0497 0.0229 0.0000
vt 0.0497 0.1520 0.0000
vt 0.0219 0.1520 0.0000
vt 0.0837 0.0229 0.0000
vt 0.0837 0.1520 0.0000
vt 0.1200 0.0229 0.0000
vt 0.1200 0.1520 0.0000
vt 0.1540 0.0229 0.0000
vt 0.1540 0.1520 0.0000
vt 0.1817 0.0229 0.0000
vt 0.1817 0.1520 0.0000
vt 0.6098 0.0306 0.0000
vt 0.6404 0.0306 0.0000
vt 0.6404 0.1566 0.0000
vt 0.6098 0.1566 0.0000
vt 0.6752 0.0306 0.0000
vt 0.6752 0.1566 0.0000
vt 0.7101 0.0306 0.0000
vt 0.7101 0.1566 0.0000
vt 0.7407 0.0306 0.0000
vt 0.7407 0.1566 0.0000
vt 0.3898 0.6723 0.0000
vt 0.3620 0.6723 0.0000
vt 0.3620 0.5432 0.0000
vt 0.3898 0.5432 0.0000
vt 0.3280 0.6723 0.0000
vt 0.3280 0.5432 0.0000
vt 0.2917 0.6723 0.0000
vt 0.2917 0.5432 0.0000
vt 0.2577 0.6723 0.0000
vt 0.2577 0.5432 0.0000
vt 0.2299 0.6723 0.0000
vt 0.2299 0.5432 0.0000
vt 0.5709 0.6646 0.0000
vt 0.5402 0.6646 0.0000
vt 0.5402 0.5386 0.0000
vt 0.5709 0.5386 0.0000
vt 0.4706 0.4113 0.0000
vt 0.5054 0.4113 0.0000
vt 0.4399 0.4113 0.0000
vt 0.0497 0.2824 0.0000
vt 0.0219 0.2824 0.0000
vt 0.0837 0.2824 0.0000
vt 0.1200 0.2824 0.0000
vt 0.1540 0.2824 0.0000
vt 0.1817 0.2824 0.0000
vt 0.6404 0.2839 0.0000
vt 0.6098 0.2839 0.0000
vt 0.6752 0.2839 0.0000
vt 0.7101 0.2839 0.0000
vt 0.7407 0.2839 0.0000
vt 0.3620 0.4128 0.0000
vt 0.3898 0.4128 0.0000
vt 0.3280 0.4128 0.0000
vt 0.2917 0.4128 0.0000
vt 0.2577 0.4128 0.0000
vt 0.2299 0.4128 0.0000
vt 0.5402 0.4113 0.0000
vt 0.5709 0.4113 0.0000
vt 0.4706 0.2839 0.0000
vt 0.5054 0.2839 0.0000
vt 0.4399 0.2839 0.0000
vt 0.0497 0.4128 0.0000
vt 0.0219 0.4128 0.0000
vt 0.0837 0.4128 0.0000
vt 0.1200 0.4128 0.0000
vt 0.1540 0.4128 0.0000
vt 0.1817 0.4128 0.0000
vt 0.6404 0.4113 0.0000
vt 0.6098 0.4113 0.0000
vt 0.6752 0.4113 0.0000
vt 0.7101 0.4113 0.0000
vt 0.7407 0.4113 0.0000
vt 0.3620 0.2824 0.0000
vt 0.3898 0.2824 0.0000
vt 0.3280 0.2824 0.0000
vt 0.2917 0.2824 0.0000
vt 0.2577 0.2824 0.0000
vt 0.2299 0.2824 0.0000
vt 0.5402 0.2839 0.0000
vt 0.5709 0.2839 0.0000
vt 0.4706 0.1566 0.0000
vt 0.5054 0.1566 0.0000
vt 0.4399 0.1566 0.0000
vt 0.0497 0.5432 0.0000
vt 0.0219 0.5432 0.0000
vt 0.0837 0.5432 0.0000
vt 0.1200 0.5432 0.0000
vt 0.1540 0.5432 0.0000
vt 0.1817 0.5432 0.0000
vt 0.6404 0.5386 0.0000
vt 0.6098 0.5386 0.0000
vt 0.6752 0.5386 0.0000
vt 0.7101 0.5386 0.0000
vt 0.7407 0.5386 0.0000
vt 0.3620 0.1520 0.0000
vt 0.3898 0.1520 0.0000
vt 0.3280 0.1520 0.0000
vt 0.2917 0.1520 0.0000
vt 0.2577 0.1520 0.0000
vt 0.2299 0.1520 0.0000
vt 0.5402 0.1566 0.0000
vt 0.5709 0.1566 0.0000
vt 0.4706 0.0306 0.0000
vt 0.5054 0.0306 0.0000
vt 0.4399 0.0306 0.0000
vt 0.0497 0.6723 0.0000
vt 0.0219 0.6723 0.0000
vt 0.0837 0.6723 0.0000
vt 0.1200 0.6723 0.0000
vt 0.1540 0.6723 0.0000
vt 0.1817 0.6723 0.0000
vt 0.6404 0.6646 0.0000
vt 0.6098 0.6646 0.0000
vt 0.6752 0.6646 0.0000
vt 0.7101 0.6646 0.0000
vt 0.7407 0.6646 0.0000
vt 0.3620 0.0229 0.0000
vt 0.3898 0.0229 0.0000
vt 0.3280 0.0229 0.0000
vt 0.2917 0.0229 0.0000
vt 0.2577 0.0229 0.0000
vt 0.2299 0.0229 0.0000
vt 0.5402 0.0306 0.0000
vt 0.5709 0.0306 0.0000
vt 0.3929 0.7629 0.0000
vt 0.4145 0.7886 0.0000
vt 0.4260 0.8202 0.0000
vt 0.3307 0.7403 0.0000
vt 0.4260 0.8538 0.0000
vt 0.4145 0.8854 0.0000
vt 0.3638 0.9279 0.0000
vt 0.3929 0.9111 0.0000
vt 0.3307 0.9337 0.0000
vt 0.2976 0.9279 0.0000
vt 0.2469 0.8854 0.0000
vt 0.2685 0.9111 0.0000
vt 0.2354 0.8538 0.0000
vt 0.2354 0.8202 0.0000
vt 0.2685 0.7629 0.0000
vt 0.2469 0.7886 0.0000
vt 0.2976 0.7461 0.0000
vt 0.3638 0.7461 0.0000
vt 0.0841 0.9279 0.0000
vt 0.0550 0.9111 0.0000
vt 0.0334 0.8854 0.0000
vt 0.1503 0.9279 0.0000
vt 0.0219 0.8538 0.0000
vt 0.0219 0.8202 0.0000
vt 0.0550 0.7629 0.0000
vt 0.0334 0.7886 0.0000
vt 0.0841 0.7461 0.0000
vt 0.1172 0.7403 0.0000
vt 0.1794 0.7629 0.0000
vt 0.1503 0.7461 0.0000
vt 0.2010 0.7886 0.0000
vt 0.2125 0.8202 0.0000
vt 0.2010 0.8854 0.0000
vt 0.2125 0.8538 0.0000
vt 0.1794 0.9111 0.0000
vt 0.1172 0.9337 0.0000
vt 0.4707 0.6656 0.0000
vt 0.5054 0.6656 0.0000
vt 0.4401 0.6656 0.0000
vt 0.0498 0.0219 0.0000
vt 0.0222 0.0219 0.0000
vt 0.0838 0.0219 0.0000
vt 0.1199 0.0219 0.0000
vt 0.1538 0.0219 0.0000
vt 0.1815 0.0219 0.0000
vt 0.6405 0.0296 0.0000
vt 0.6100 0.0296 0.0000
vt 0.6752 0.0296 0.0000
vt 0.7100 0.0296 0.0000
vt 0.7405 0.0296 0.0000
vt 0.3618 0.6733 0.0000
vt 0.3895 0.6733 0.0000
vt 0.3279 0.6733 0.0000
vt 0.2918 0.6733 0.0000
vt 0.2579 0.6733 0.0000
vt 0.2302 0.6733 0.0000
vt 0.5401 0.6656 0.0000
vt 0.5707 0.6656 0.0000
vt 0.5054 0.0296 0.0000
vt 0.4707 0.0296 0.0000
vt 0.4401 0.0296 0.0000
vt 0.0222 0.6733 0.0000
vt 0.0498 0.6733 0.0000
vt 0.0838 0.6733 0.0000
vt 0.1199 0.6733 0.0000
vt 0.1538 0.6733 0.0000
vt 0.1815 0.6733 0.0000
vt 0.6100 0.6656 0.0000
vt 0.6405 0.6656 0.0000
vt 0.6752 0.6656 0.0000
vt 0.7100 0.6656 0.0000
vt 0.7405 0.6656 0.0000
vt 0.3895 0.0219 0.0000
vt 0.3618 0.0219 0.0000
vt 0.3279 0.0219 0.0000
vt 0.2918 0.0219 0.0000
vt 0.2579 0.0219 0.0000
vt 0.2302 0.0219 0.0000
vt 0.5707 0.0296 0.0000
vt 0.5401 0.0296 0.0000
vt 0.8454 0.2278 0.0000
vt 0.8450 0.2269 0.0000
vt 0.8793 0.2208 0.0000
vt 0.8793 0.2218 0.0000
vt 0.8155 0.2450 0.0000
vt 0.8149 0.2443 0.0000
vt 0.7933 0.2714 0.0000
vt 0.7925 0.2709 0.0000
vt 0.7815 0.3038 0.0000
vt 0.7806 0.3037 0.0000
vt 0.7815 0.3383 0.0000
vt 0.7806 0.3385 0.0000
vt 0.7933 0.3707 0.0000
vt 0.7925 0.3712 0.0000
vt 0.8155 0.3972 0.0000
vt 0.8149 0.3979 0.0000
vt 0.8454 0.4144 0.0000
vt 0.8450 0.4153 0.0000
vt 0.8793 0.4204 0.0000
vt 0.8793 0.4214 0.0000
vt 0.9133 0.4144 0.0000
vt 0.9136 0.4153 0.0000
vt 0.9432 0.3972 0.0000
vt 0.9438 0.3979 0.0000
vt 0.9653 0.3707 0.0000
vt 0.9662 0.3712 0.0000
vt 0.9771 0.3383 0.0000
vt 0.9781 0.3385 0.0000
vt 0.9771 0.3038 0.0000
vt 0.9781 0.3037 0.0000
vt 0.9653 0.2714 0.0000
vt 0.9662 0.2709 0.0000
vt 0.9432 0.2450 0.0000
vt 0.9438 0.2443 0.0000
vt 0.9133 0.2278 0.0000
vt 0.9136 0.2269 0.0000
vt 0.8793 0.6618 0.0000
vt 0.8793 0.6628 0.0000
vt 0.8450 0.6568 0.0000
vt 0.8454 0.6559 0.0000
vt 0.8149 0.6393 0.0000
vt 0.8155 0.6386 0.0000
vt 0.7925 0.6127 0.0000
vt 0.7933 0.6122 0.0000
vt 0.7806 0.5799 0.0000
vt 0.7815 0.5798 0.0000
vt 0.7806 0.5451 0.0000
vt 0.7815 0.5453 0.0000
vt 0.7925 0.5124 0.0000
vt 0.7933 0.5129 0.0000
vt 0.8149 0.4857 0.0000
vt 0.8155 0.4864 0.0000
vt 0.8450 0.4683 0.0000
vt 0.8454 0.4692 0.0000
vt 0.8793 0.4622 0.0000
vt 0.8793 0.4632 0.0000
vt 0.9136 0.4683 0.0000
vt 0.9133 0.4692 0.0000
vt 0.9438 0.4857 0.0000
vt 0.9432 0.4864 0.0000
vt 0.9662 0.5124 0.0000
vt 0.9653 0.5129 0.0000
vt 0.9781 0.5451 0.0000
vt 0.9771 0.5453 0.0000
vt 0.9781 0.5799 0.0000
vt 0.9771 0.5798 0.0000
vt 0.9662 0.6127 0.0000
vt 0.9653 0.6122 0.0000
vt 0.9438 0.6393 0.0000
vt 0.9432 0.6386 0.0000
vt 0.9136 0.6568 0.0000
vt 0.9133 0.6559 0.0000
# 284 texture coords

g 对象001
usemtl wire_153228214
s 8
f 1/1/1 2/2/2 3/3/2 4/4/3 
f 2/2/2 5/5/4 6/6/4 3/3/2 
f 5/7/4 7/8/5 8/9/6 6/10/4 
f 7/8/5 9/11/7 10/12/7 8/9/6 
f 9/11/7 11/13/8 12/14/8 10/12/7 
f 11/13/8 13/15/9 14/16/10 12/14/8 
f 13/15/9 15/17/11 16/18/11 14/16/10 
f 15/19/11 17/20/12 18/21/12 16/22/11 
f 17/20/12 19/23/13 20/24/14 18/21/12 
f 19/23/13 21/25/15 22/26/15 20/24/14 
f 21/25/15 23/27/16 24/28/16 22/26/15 
f 23/29/16 25/30/17 26/31/17 24/32/16 
f 25/30/17 27/33/18 28/34/18 26/31/17 
f 27/33/18 29/35/19 30/36/19 28/34/18 
f 29/35/19 31/37/20 32/38/20 30/36/19 
f 31/37/20 33/39/21 34/40/21 32/38/20 
f 33/41/21 35/42/22 36/43/22 34/44/21 
f 35/42/22 1/1/1 4/4/3 36/43/22 
f 4/4/3 3/3/2 37/45/2 38/46/1 
f 3/3/2 6/6/4 39/47/4 37/45/2 
f 6/10/4 8/9/6 40/48/6 39/49/4 
f 8/9/6 10/12/7 41/50/23 40/48/6 
f 10/12/7 12/14/8 42/51/24 41/50/23 
f 12/14/8 14/16/10 43/52/9 42/51/24 
f 14/16/10 16/18/11 44/53/11 43/52/9 
f 16/22/11 18/21/12 45/54/12 44/55/11 
f 18/21/12 20/24/14 46/56/14 45/54/12 
f 20/24/14 22/26/15 47/57/15 46/56/14 
f 22/26/15 24/28/16 48/58/16 47/57/15 
f 24/32/16 26/31/17 49/59/17 48/60/16 
f 26/31/17 28/34/18 50/61/18 49/59/17 
f 28/34/18 30/36/19 51/62/19 50/61/18 
f 30/36/19 32/38/20 52/63/20 51/62/19 
f 32/38/20 34/40/21 53/64/21 52/63/20 
f 34/44/21 36/43/22 54/65/22 53/66/21 
f 36/43/22 4/4/3 38/46/1 54/65/22 
f 38/46/1 37/45/2 55/67/2 56/68/3 
f 37/45/2 39/47/4 57/69/4 55/67/2 
f 39/49/4 40/48/6 58/70/5 57/71/4 
f 40/48/6 41/50/23 59/72/23 58/70/5 
f 41/50/23 42/51/24 60/73/24 59/72/23 
f 42/51/24 43/52/9 61/74/9 60/73/24 
f 43/52/9 44/53/11 62/75/11 61/74/9 
f 44/55/11 45/54/12 63/76/12 62/77/11 
f 45/54/12 46/56/14 64/78/13 63/76/12 
f 46/56/14 47/57/15 65/79/15 64/78/13 
f 47/57/15 48/58/16 66/80/16 65/79/15 
f 48/60/16 49/59/17 67/81/17 66/82/16 
f 49/59/17 50/61/18 68/83/18 67/81/17 
f 50/61/18 51/62/19 69/84/19 68/83/18 
f 51/62/19 52/63/20 70/85/20 69/84/19 
f 52/63/20 53/64/21 71/86/21 70/85/20 
f 53/66/21 54/65/22 72/87/22 71/88/21 
f 54/65/22 38/46/1 56/68/3 72/87/22 
f 56/68/3 55/67/2 73/89/2 74/90/3 
f 55/67/2 57/69/4 75/91/4 73/89/2 
f 57/71/4 58/70/5 76/92/6 75/93/4 
f 58/70/5 59/72/23 77/94/23 76/92/6 
f 59/72/23 60/73/24 78/95/24 77/94/23 
f 60/73/24 61/74/9 79/96/9 78/95/24 
f 61/74/9 62/75/11 80/97/11 79/96/9 
f 62/77/11 63/76/12 81/98/12 80/99/11 
f 63/76/12 64/78/13 82/100/14 81/98/12 
f 64/78/13 65/79/15 83/101/15 82/100/14 
f 65/79/15 66/80/16 84/102/16 83/101/15 
f 66/82/16 67/81/17 85/103/17 84/104/16 
f 67/81/17 68/83/18 86/105/18 85/103/17 
f 68/83/18 69/84/19 87/106/19 86/105/18 
f 69/84/19 70/85/20 88/107/20 87/106/19 
f 70/85/20 71/86/21 89/108/21 88/107/20 
f 71/88/21 72/87/22 90/109/22 89/110/21 
f 72/87/22 56/68/3 74/90/3 90/109/22 
f 74/90/3 73/89/2 91/111/2 92/112/3 
f 73/89/2 75/91/4 93/113/4 91/111/2 
f 75/93/4 76/92/6 94/114/6 93/115/4 
f 76/92/6 77/94/23 95/116/23 94/114/6 
f 77/94/23 78/95/24 96/117/24 95/116/23 
f 78/95/24 79/96/9 97/118/9 96/117/24 
f 79/96/9 80/97/11 98/119/11 97/118/9 
f 80/99/11 81/98/12 99/120/12 98/121/11 
f 81/98/12 82/100/14 100/122/13 99/120/12 
f 82/100/14 83/101/15 101/123/15 100/122/13 
f 83/101/15 84/102/16 102/124/16 101/123/15 
f 84/104/16 85/103/17 103/125/17 102/126/16 
f 85/103/17 86/105/18 104/127/18 103/125/17 
f 86/105/18 87/106/19 105/128/19 104/127/18 
f 87/106/19 88/107/20 106/129/20 105/128/19 
f 88/107/20 89/108/21 107/130/21 106/129/20 
f 89/110/21 90/109/22 108/131/22 107/132/21 
f 90/109/22 74/90/3 92/112/3 108/131/22 
s 1
f 109/133/25 110/134/25 111/135/25 112/136/25 
f 111/135/25 113/137/25 114/138/25 115/139/25 
f 114/138/25 116/140/25 115/139/25 
f 115/139/25 117/141/25 118/142/25 119/143/25 
f 118/142/25 120/144/25 119/143/25 
f 119/143/25 121/145/25 122/146/25 123/147/25 
f 122/146/25 124/148/25 123/147/25 
f 115/139/25 119/143/25 123/147/25 111/135/25 
f 123/147/25 125/149/25 112/136/25 111/135/25 
f 126/150/25 109/133/25 112/136/25 
f 127/151/26 128/152/26 129/153/26 130/154/26 
f 129/153/26 131/155/26 132/156/26 133/157/26 
f 132/156/26 134/158/26 133/157/26 
f 133/157/26 135/159/26 136/160/26 137/161/26 
f 136/160/26 138/162/26 137/161/26 
f 137/161/26 139/163/26 140/164/26 141/165/26 
f 140/164/26 142/166/26 141/165/26 
f 133/157/26 137/161/26 141/165/26 129/153/26 
f 141/165/26 143/167/26 130/154/26 129/153/26 
f 144/168/26 127/151/26 130/154/26 
s off
f 145/169/27 2/2/27 1/1/27 146/170/27 
f 147/171/28 5/5/28 2/2/28 145/169/28 
f 148/172/29 7/8/29 5/7/29 147/173/29 
f 149/174/30 9/11/30 7/8/30 148/172/30 
f 150/175/31 11/13/31 9/11/31 149/174/31 
f 151/176/32 13/15/32 11/13/32 150/175/32 
f 152/177/33 15/17/33 13/15/33 151/176/33 
f 153/178/34 17/20/34 15/19/34 152/179/34 
f 154/180/35 19/23/35 17/20/35 153/178/35 
f 155/181/36 21/25/36 19/23/36 154/180/36 
f 156/182/37 23/27/37 21/25/37 155/181/37 
f 157/183/38 25/30/38 23/29/38 156/184/38 
f 158/185/39 27/33/39 25/30/39 157/183/39 
f 159/186/40 29/35/40 27/33/40 158/185/40 
f 160/187/41 31/37/41 29/35/41 159/186/41 
f 161/188/42 33/39/42 31/37/42 160/187/42 
f 162/189/43 35/42/43 33/41/43 161/190/43 
f 146/170/44 1/1/44 35/42/44 162/189/44 
f 163/191/45 92/112/45 91/111/45 164/192/45 
f 164/192/46 91/111/46 93/113/46 165/193/46 
f 165/194/47 93/115/47 94/114/47 166/195/47 
f 166/195/48 94/114/48 95/116/48 167/196/48 
f 167/196/49 95/116/49 96/117/49 168/197/49 
f 168/197/50 96/117/50 97/118/50 169/198/50 
f 169/198/51 97/118/51 98/119/51 170/199/51 
f 170/200/52 98/121/52 99/120/52 171/201/52 
f 171/201/53 99/120/53 100/122/53 172/202/53 
f 172/202/54 100/122/54 101/123/54 173/203/54 
f 173/203/55 101/123/55 102/124/55 174/204/55 
f 174/205/56 102/126/56 103/125/56 175/206/56 
f 175/206/57 103/125/57 104/127/57 176/207/57 
f 176/207/58 104/127/58 105/128/58 177/208/58 
f 177/208/59 105/128/59 106/129/59 178/209/59 
f 178/209/60 106/129/60 107/130/60 179/210/60 
f 179/211/61 107/132/61 108/131/61 180/212/61 
f 180/212/62 108/131/62 92/112/62 163/191/62 
f 125/213/63 145/214/63 146/215/63 112/216/63 
f 123/217/64 147/218/64 145/214/64 125/213/64 
f 124/219/65 148/220/65 147/218/65 123/217/65 
f 122/221/66 149/222/66 148/220/66 124/219/66 
f 121/223/67 150/224/67 149/222/67 122/221/67 
f 119/225/68 151/226/68 150/224/68 121/223/68 
f 120/227/69 152/228/69 151/226/69 119/225/69 
f 118/229/70 153/230/70 152/228/70 120/227/70 
f 117/231/71 154/232/71 153/230/71 118/229/71 
f 115/233/72 155/234/72 154/232/72 117/231/72 
f 116/235/73 156/236/73 155/234/73 115/233/73 
f 114/237/74 157/238/74 156/236/74 116/235/74 
f 113/239/75 158/240/75 157/238/75 114/237/75 
f 111/241/76 159/242/76 158/240/76 113/239/76 
f 110/243/77 160/244/77 159/242/77 111/241/77 
f 109/245/78 161/246/78 160/244/78 110/243/78 
f 126/247/79 162/248/79 161/246/79 109/245/79 
f 112/216/80 146/215/80 162/248/80 126/247/80 
f 144/249/81 163/250/81 164/251/81 127/252/81 
f 127/252/82 164/251/82 165/253/82 128/254/82 
f 128/254/83 165/253/83 166/255/83 129/256/83 
f 129/256/84 166/255/84 167/257/84 131/258/84 
f 131/258/85 167/257/85 168/259/85 132/260/85 
f 132/260/86 168/259/86 169/261/86 134/262/86 
f 134/262/87 169/261/87 170/263/87 133/264/87 
f 133/264/88 170/263/88 171/265/88 135/266/88 
f 135/266/89 171/265/89 172/267/89 136/268/89 
f 136/268/90 172/267/90 173/269/90 138/270/90 
f 138/270/91 173/269/91 174/271/91 137/272/91 
f 137/272/92 174/271/92 175/273/92 139/274/92 
f 139/274/93 175/273/93 176/275/93 140/276/93 
f 140/276/94 176/275/94 177/277/94 142/278/94 
f 142/278/95 177/277/95 178/279/95 141/280/95 
f 141/280/96 178/279/96 179/281/96 143/282/96 
f 143/282/97 179/281/97 180/283/97 130/284/97 
f 130/284/98 180/283/98 163/250/98 144/249/98 
# 174 polygons - 8 triangles

