# 3ds Max Wavefront OBJ Exporter v0.97b - (c)2007 guruware
# 创建的文件:20.06.2017 12:45:53

mtllib 接头.mtl

#
# object Torus001
#

v  -0.0000 -49.4975 -119.4975
v  -0.0000 49.4975 -119.4975
v  30.9282 49.4975 -115.4257
v  30.9282 -49.4975 -115.4257
v  -0.0000 49.4975 -20.5025
v  5.3064 49.4975 -19.8039
v  -0.0000 -49.4975 -20.5025
v  5.3064 -49.4975 -19.8039
v  59.7487 49.4975 -103.4879
v  59.7487 -49.4975 -103.4879
v  10.2513 49.4975 -17.7557
v  10.2513 -49.4975 -17.7557
v  84.4975 49.4975 -84.4975
v  84.4975 -49.4975 -84.4975
v  14.4975 49.4975 -14.4975
v  14.4975 -49.4975 -14.4975
v  103.4878 49.4975 -59.7487
v  103.4878 -49.4975 -59.7487
v  17.7557 49.4975 -10.2513
v  17.7557 -49.4975 -10.2513
v  115.4257 49.4975 -30.9282
v  115.4257 -49.4975 -30.9282
v  19.8039 49.4975 -5.3064
v  19.8039 -49.4975 -5.3064
v  119.4975 49.4975 -0.0000
v  119.4975 -49.4975 -0.0000
v  20.5025 49.4975 -0.0000
v  20.5025 -49.4975 -0.0000
v  19.8039 -49.4975 5.3064
v  19.8039 49.4975 5.3064
v  119.4975 49.4975 0.0000
v  119.4975 49.4975 20.0000
v  119.4975 -49.4975 20.0000
v  119.4975 49.4975 40.0000
v  119.4975 -49.4975 40.0000
v  119.4975 49.4975 60.0000
v  119.4975 -49.4975 60.0000
v  119.4975 49.4975 80.0000
v  119.4975 -49.4975 80.0000
v  119.4975 49.4975 100.0000
v  119.4975 -49.4975 100.0000
v  112.4264 42.4264 100.0000
v  112.4264 -42.4264 100.0000
v  112.4264 42.4264 80.0000
v  112.4264 -42.4264 80.0000
v  112.4264 42.4264 60.0000
v  112.4264 -42.4264 60.0000
v  112.4264 42.4264 40.0000
v  112.4264 -42.4264 40.0000
v  112.4264 42.4264 20.0000
v  112.4264 -42.4264 20.0000
v  112.4264 42.4264 0.0000
v  112.4264 -42.4264 -0.0000
v  20.5025 -49.4975 20.0000
v  20.5025 -49.4975 40.0000
v  20.5025 -49.4975 60.0000
v  20.5025 -49.4975 80.0000
v  20.5025 -49.4975 100.0000
v  27.5736 -42.4264 100.0000
v  27.5736 -42.4264 80.0000
v  27.5736 -42.4264 60.0000
v  27.5736 -42.4264 40.0000
v  27.5736 -42.4264 20.0000
v  27.5736 -42.4264 -0.0000
v  20.5025 49.4975 20.0000
v  20.5025 49.4975 0.0000
v  20.5025 49.4975 40.0000
v  20.5025 49.4975 60.0000
v  20.5025 49.4975 80.0000
v  20.5025 49.4975 100.0000
v  27.5736 42.4264 100.0000
v  27.5736 42.4264 80.0000
v  27.5736 42.4264 60.0000
v  27.5736 42.4264 40.0000
v  27.5736 42.4264 20.0000
v  27.5736 42.4264 0.0000
v  -20.0000 49.4975 -20.5025
v  -20.0000 -49.4975 -20.5025
v  -40.0000 49.4975 -20.5025
v  -40.0000 -49.4975 -20.5025
v  -60.0000 49.4975 -20.5025
v  -60.0000 -49.4975 -20.5025
v  -80.0000 49.4975 -20.5025
v  -80.0000 -49.4975 -20.5025
v  -100.0000 49.4975 -20.5025
v  -100.0000 -49.4975 -20.5025
v  -100.0000 42.4264 -27.5736
v  -100.0000 -42.4264 -27.5736
v  -80.0000 42.4264 -27.5736
v  -80.0000 -42.4264 -27.5736
v  -60.0000 42.4264 -27.5736
v  -60.0000 -42.4264 -27.5736
v  -40.0000 42.4264 -27.5736
v  -40.0000 -42.4264 -27.5736
v  -20.0000 42.4264 -27.5736
v  -20.0000 -42.4264 -27.5736
v  -0.0000 42.4264 -27.5736
v  -0.0000 -42.4264 -27.5736
v  -20.0000 -49.4975 -119.4975
v  0.0000 -49.4975 -119.4975
v  -40.0000 -49.4975 -119.4975
v  -60.0000 -49.4975 -119.4975
v  -80.0000 -49.4975 -119.4975
v  -100.0000 -49.4975 -119.4975
v  -100.0000 -42.4264 -112.4264
v  -80.0000 -42.4264 -112.4264
v  -60.0000 -42.4264 -112.4264
v  -40.0000 -42.4264 -112.4264
v  -20.0000 -42.4264 -112.4264
v  0.0000 -42.4264 -112.4264
v  -20.0000 49.4975 -119.4975
v  0.0000 49.4975 -119.4975
v  -40.0000 49.4975 -119.4975
v  -60.0000 49.4975 -119.4975
v  -80.0000 49.4975 -119.4975
v  -100.0000 49.4975 -119.4975
v  -100.0000 42.4264 -112.4264
v  -80.0000 42.4264 -112.4264
v  -60.0000 42.4264 -112.4264
v  -40.0000 42.4264 -112.4264
v  -20.0000 42.4264 -112.4264
v  0.0000 42.4264 -112.4264
# 122 vertices

vn 0.0962 -0.6757 -0.7308
vn 0.0962 0.6757 -0.7308
vn 0.1900 0.6789 -0.7092
vn 0.1900 -0.6789 -0.7092
vn -0.0885 0.7348 0.6725
vn -0.1747 0.7377 0.6521
vn -0.0885 -0.7348 0.6725
vn -0.1747 -0.7377 0.6521
vn 0.3671 0.6789 -0.6359
vn 0.3671 -0.6789 -0.6359
vn -0.3376 0.7377 0.5847
vn -0.3376 -0.7377 0.5847
vn 0.5192 0.6789 -0.5192
vn 0.5192 -0.6789 -0.5192
vn -0.4774 0.7377 0.4774
vn -0.4774 -0.7377 0.4774
vn 0.6359 0.6789 -0.3671
vn 0.6359 -0.6789 -0.3671
vn -0.5847 0.7377 0.3376
vn -0.5847 -0.7377 0.3376
vn 0.7092 0.6789 -0.1900
vn 0.7092 -0.6789 -0.1900
vn -0.6521 0.7377 0.1747
vn -0.6521 -0.7377 0.1747
vn 0.7308 0.6757 -0.0962
vn 0.7308 -0.6757 -0.0962
vn -0.8776 0.4795 -0.0000
vn -0.8776 -0.4795 -0.0000
vn -0.9914 -0.0000 -0.1305
vn 0.7071 0.7071 -0.0000
vn 0.7071 -0.7071 -0.0000
vn 0.7071 0.7071 0.0000
vn 0.7071 -0.7071 0.0000
vn 0.0000 0.0000 1.0000
vn -0.7071 -0.7071 -0.0000
vn -0.7071 0.7071 0.0000
vn -0.7071 0.7071 -0.0000
vn 0.0000 0.0000 -1.0000
vn 0.0000 0.7071 0.7071
vn -0.0000 0.7071 0.7071
vn -0.0000 -0.7071 0.7071
vn 0.0000 -0.7071 0.7071
vn -1.0000 -0.0000 -0.0000
vn -1.0000 -0.0000 0.0000
vn 0.0000 -0.7071 -0.7071
vn -0.0000 0.7071 -0.7071
vn 0.0000 0.7071 -0.7071
vn 1.0000 0.0000 0.0000
# 48 vertex normals

vt 0.0000 0.0000 0.0000
vt 0.2500 0.0000 0.0000
vt 0.2500 0.0417 0.0000
vt 0.0000 0.0417 0.0000
vt 0.5000 0.0000 0.0000
vt 0.5000 0.0417 0.0000
vt 0.7500 0.0000 0.0000
vt 0.7500 0.0417 0.0000
vt 1.0000 0.0000 0.0000
vt 1.0000 0.0417 0.0000
vt 0.2500 0.0833 0.0000
vt 0.0000 0.0833 0.0000
vt 0.5000 0.0833 0.0000
vt 0.7500 0.0833 0.0000
vt 1.0000 0.0833 0.0000
vt 0.2500 0.1250 0.0000
vt 0.0000 0.1250 0.0000
vt 0.5000 0.1250 0.0000
vt 0.7500 0.1250 0.0000
vt 1.0000 0.1250 0.0000
vt 0.2500 0.1667 0.0000
vt 0.0000 0.1667 0.0000
vt 0.5000 0.1667 0.0000
vt 0.7500 0.1667 0.0000
vt 1.0000 0.1667 0.0000
vt 0.2500 0.2083 0.0000
vt 0.0000 0.2083 0.0000
vt 0.5000 0.2083 0.0000
vt 0.7500 0.2083 0.0000
vt 1.0000 0.2083 0.0000
vt 0.2500 0.2500 0.0000
vt 0.0000 0.2500 0.0000
vt 0.5000 0.2500 0.0000
vt 0.7500 0.2500 0.0000
vt 1.0000 0.2500 0.0000
vt 0.7500 0.2917 0.0000
vt 0.5000 0.2917 0.0000
vt 0.0833 0.0000 0.0000
vt 0.0833 0.2500 0.0000
vt 0.1667 0.0000 0.0000
vt 0.1667 0.2500 0.0000
vt 0.3333 0.0000 0.0000
vt 0.3333 0.2500 0.0000
vt 0.4167 0.0000 0.0000
vt 0.4167 0.2500 0.0000
vt 0.5833 0.0000 0.0000
vt 0.5833 0.2500 0.0000
vt 0.6667 0.0000 0.0000
vt 0.6667 0.2500 0.0000
vt 0.8333 0.0000 0.0000
vt 0.8333 0.2500 0.0000
vt 0.9167 0.0000 0.0000
vt 0.9167 0.2500 0.0000
vt 0.0833 0.5000 0.0000
vt 0.0000 0.5000 0.0000
vt 0.1667 0.5000 0.0000
vt 0.2500 0.5000 0.0000
vt 0.3333 0.5000 0.0000
vt 0.4167 0.5000 0.0000
vt 0.5000 0.5000 0.0000
vt 0.5833 0.5000 0.0000
vt 0.6667 0.5000 0.0000
vt 0.7500 0.5000 0.0000
vt 0.8333 0.5000 0.0000
vt 0.9167 0.5000 0.0000
vt 1.0000 0.5000 0.0000
vt 0.0833 0.7500 0.0000
vt 0.0000 0.7500 0.0000
vt 0.1667 0.7500 0.0000
vt 0.2500 0.7500 0.0000
vt 0.3333 0.7500 0.0000
vt 0.4167 0.7500 0.0000
vt 0.5000 0.7500 0.0000
vt 0.5833 0.7500 0.0000
vt 0.6667 0.7500 0.0000
vt 0.7500 0.7500 0.0000
vt 0.8333 0.7500 0.0000
vt 0.9167 0.7500 0.0000
vt 1.0000 0.7500 0.0000
vt 0.0833 1.0000 0.0000
vt 0.0000 1.0000 0.0000
vt 0.1667 1.0000 0.0000
vt 0.2500 1.0000 0.0000
vt 0.3333 1.0000 0.0000
vt 0.4167 1.0000 0.0000
vt 0.5000 1.0000 0.0000
vt 0.5833 1.0000 0.0000
vt 0.6667 1.0000 0.0000
vt 0.7500 1.0000 0.0000
vt 0.8333 1.0000 0.0000
vt 0.9167 1.0000 0.0000
vt 1.0000 1.0000 0.0000
# 92 texture coords

g Torus001
usemtl wire_008008136
s 1
f 1/1/1 2/2/2 3/3/3 4/4/4 
f 2/2/2 5/5/5 6/6/6 3/3/3 
f 5/5/5 7/7/7 8/8/8 6/6/6 
f 7/7/7 1/9/1 4/10/4 8/8/8 
f 4/4/4 3/3/3 9/11/9 10/12/10 
f 3/3/3 6/6/6 11/13/11 9/11/9 
f 6/6/6 8/8/8 12/14/12 11/13/11 
f 8/8/8 4/10/4 10/15/10 12/14/12 
f 10/12/10 9/11/9 13/16/13 14/17/14 
f 9/11/9 11/13/11 15/18/15 13/16/13 
f 11/13/11 12/14/12 16/19/16 15/18/15 
f 12/14/12 10/15/10 14/20/14 16/19/16 
f 14/17/14 13/16/13 17/21/17 18/22/18 
f 13/16/13 15/18/15 19/23/19 17/21/17 
f 15/18/15 16/19/16 20/24/20 19/23/19 
f 16/19/16 14/20/14 18/25/18 20/24/20 
f 18/22/18 17/21/17 21/26/21 22/27/22 
f 17/21/17 19/23/19 23/28/23 21/26/21 
f 19/23/19 20/24/20 24/29/24 23/28/23 
f 20/24/20 18/25/18 22/30/22 24/29/24 
f 22/27/22 21/26/21 25/31/25 26/32/26 
f 21/26/21 23/28/23 27/33/27 25/31/25 
f 23/28/23 24/29/24 28/34/28 27/33/27 
f 24/29/24 22/30/22 26/35/26 28/34/28 
f 27/33/27 28/34/28 29/36/29 30/37/29 
s 2
f 31/1/30 32/38/30 33/39/31 26/32/31 
f 32/38/30 34/40/30 35/41/31 33/39/31 
f 34/40/30 36/2/32 37/31/33 35/41/31 
f 36/2/32 38/42/32 39/43/33 37/31/33 
f 38/42/32 40/44/30 41/45/31 39/43/33 
s 4
f 40/44/34 42/5/34 43/33/34 41/45/34 
s 2
f 42/5/35 44/46/35 45/47/36 43/33/37 
f 44/46/35 46/48/35 47/49/36 45/47/36 
f 46/48/35 48/7/35 49/34/37 47/49/36 
f 48/7/35 50/50/35 51/51/37 49/34/37 
f 50/50/35 52/52/35 53/53/37 51/51/37 
s 4
f 52/52/38 31/9/38 26/35/38 53/53/38 
s 2
f 26/32/31 33/39/31 54/54/35 28/55/35 
f 33/39/31 35/41/31 55/56/35 54/54/35 
f 35/41/31 37/31/33 56/57/35 55/56/35 
f 37/31/33 39/43/33 57/58/35 56/57/35 
f 39/43/33 41/45/31 58/59/35 57/58/35 
s 4
f 41/45/34 43/33/34 59/60/34 58/59/34 
s 2
f 43/33/37 45/47/36 60/61/32 59/60/30 
f 45/47/36 47/49/36 61/62/32 60/61/32 
f 47/49/36 49/34/37 62/63/30 61/62/32 
f 49/34/37 51/51/37 63/64/30 62/63/30 
f 51/51/37 53/53/37 64/65/30 63/64/30 
s 4
f 53/53/38 26/35/38 28/66/38 64/65/38 
s 2
f 28/55/35 54/54/35 65/67/37 66/68/37 
f 54/54/35 55/56/35 67/69/37 65/67/37 
f 55/56/35 56/57/35 68/70/36 67/69/37 
f 56/57/35 57/58/35 69/71/37 68/70/36 
f 57/58/35 58/59/35 70/72/37 69/71/37 
s 4
f 58/59/34 59/60/34 71/73/34 70/72/34 
s 2
f 59/60/30 60/61/32 72/74/33 71/73/31 
f 60/61/32 61/62/32 73/75/31 72/74/33 
f 61/62/32 62/63/30 74/76/31 73/75/31 
f 62/63/30 63/64/30 75/77/31 74/76/31 
f 63/64/30 64/65/30 76/78/31 75/77/31 
s 4
f 64/65/38 28/66/38 66/79/38 76/78/38 
s 2
f 66/68/37 65/67/37 32/80/30 31/81/30 
f 65/67/37 67/69/37 34/82/30 32/80/30 
f 67/69/37 68/70/36 36/83/32 34/82/30 
f 68/70/36 69/71/37 38/84/32 36/83/32 
f 69/71/37 70/72/37 40/85/30 38/84/32 
s 4
f 70/72/34 71/73/34 42/86/34 40/85/34 
s 2
f 71/73/31 72/74/33 44/87/35 42/86/35 
f 72/74/33 73/75/31 46/88/35 44/87/35 
f 73/75/31 74/76/31 48/89/35 46/88/35 
f 74/76/31 75/77/31 50/90/35 48/89/35 
f 75/77/31 76/78/31 52/91/35 50/90/35 
s 4
f 76/78/38 66/79/38 31/92/38 52/91/38 
s 2
f 5/1/39 77/38/40 78/39/41 7/32/42 
f 77/38/40 79/40/40 80/41/41 78/39/41 
f 79/40/40 81/2/40 82/31/41 80/41/41 
f 81/2/40 83/42/40 84/43/42 82/31/41 
f 83/42/40 85/44/39 86/45/42 84/43/42 
s 4
f 85/44/43 87/5/44 88/33/43 86/45/43 
s 2
f 87/5/45 89/46/45 90/47/46 88/33/47 
f 89/46/45 91/48/45 92/49/47 90/47/46 
f 91/48/45 93/7/45 94/34/47 92/49/47 
f 93/7/45 95/50/45 96/51/47 94/34/47 
f 95/50/45 97/52/45 98/53/47 96/51/47 
s 4
f 97/52/48 5/9/48 7/35/48 98/53/48 
s 2
f 7/32/42 78/39/41 99/54/45 100/55/45 
f 78/39/41 80/41/41 101/56/45 99/54/45 
f 80/41/41 82/31/41 102/57/45 101/56/45 
f 82/31/41 84/43/42 103/58/45 102/57/45 
f 84/43/42 86/45/42 104/59/45 103/58/45 
s 4
f 86/45/43 88/33/43 105/60/44 104/59/43 
s 2
f 88/33/47 90/47/46 106/61/40 105/60/39 
f 90/47/46 92/49/47 107/62/40 106/61/40 
f 92/49/47 94/34/47 108/63/40 107/62/40 
f 94/34/47 96/51/47 109/64/40 108/63/40 
f 96/51/47 98/53/47 110/65/39 109/64/40 
s 4
f 98/53/48 7/35/48 100/66/48 110/65/48 
s 2
f 100/55/45 99/54/45 111/67/47 112/68/47 
f 99/54/45 101/56/45 113/69/47 111/67/47 
f 101/56/45 102/57/45 114/70/47 113/69/47 
f 102/57/45 103/58/45 115/71/47 114/70/47 
f 103/58/45 104/59/45 116/72/47 115/71/47 
s 4
f 104/59/43 105/60/44 117/73/43 116/72/43 
s 2
f 105/60/39 106/61/40 118/74/42 117/73/42 
f 106/61/40 107/62/40 119/75/42 118/74/42 
f 107/62/40 108/63/40 120/76/41 119/75/42 
f 108/63/40 109/64/40 121/77/41 120/76/41 
f 109/64/40 110/65/39 122/78/42 121/77/41 
s 4
f 110/65/48 100/66/48 112/79/48 122/78/48 
s 2
f 112/68/47 111/67/47 77/80/40 5/81/39 
f 111/67/47 113/69/47 79/82/40 77/80/40 
f 113/69/47 114/70/47 81/83/40 79/82/40 
f 114/70/47 115/71/47 83/84/40 81/83/40 
f 115/71/47 116/72/47 85/85/39 83/84/40 
s 4
f 116/72/43 117/73/43 87/86/44 85/85/43 
s 2
f 117/73/42 118/74/42 89/87/45 87/86/45 
f 118/74/42 119/75/42 91/88/45 89/87/45 
f 119/75/42 120/76/41 93/89/45 91/88/45 
f 120/76/41 121/77/41 95/90/45 93/89/45 
f 121/77/41 122/78/42 97/91/45 95/90/45 
s 4
f 122/78/48 112/79/48 5/92/48 97/91/48 
# 121 polygons

