# 3ds Max Wavefront OBJ Exporter v0.97b - (c)2007 guruware
# 创建的文件:12.03.2018 14:11:27

mtllib 滚筒.mtl

#
# object Text001
#

v  -27.1333 0.0000 10.2816
v  -29.2500 0.0000 11.0625
v  -28.9297 0.0000 11.4268
v  -11.9500 0.0000 15.3375
v  -11.9500 0.0000 12.3875
v  -17.8500 0.0000 14.4805
v  -12.6600 0.0000 15.5559
v  -13.3853 0.0000 15.7894
v  -14.1257 0.0000 16.0379
v  -14.8813 0.0000 16.3014
v  -15.6520 0.0000 16.5799
v  -16.4379 0.0000 16.8735
v  -1.5359 0.0000 16.7000
v  0.5000 0.0000 14.0125
v  -0.6288 0.0000 13.6419
v  -13.6455 0.0000 -4.3162
v  -12.6000 0.0000 -5.3680
v  -15.1875 0.0000 -6.7000
v  -16.1515 0.0000 -5.5597
v  -14.6561 0.0000 -3.3205
v  -17.1064 0.0000 -4.4843
v  -15.6317 0.0000 -2.3806
v  -18.0522 0.0000 -3.4739
v  -16.5724 0.0000 -1.4967
v  -17.2391 0.0000 17.1820
v  -24.1619 0.0000 1.1052
v  -24.6500 0.0000 1.2500
v  -23.3914 0.0000 3.9500
v  -18.9889 0.0000 -2.5283
v  -17.4783 0.0000 -0.6687
v  -3.9071 0.0000 15.6267
v  -1.7152 0.0000 13.2276
v  -2.7593 0.0000 12.7694
v  -6.0886 0.0000 14.3446
v  -3.7610 0.0000 12.2673
v  -4.7203 0.0000 11.7215
v  -8.0802 0.0000 12.8538
v  -5.6372 0.0000 11.1319
v  -6.5117 0.0000 10.4984
v  -9.8821 0.0000 11.1542
v  -28.6244 0.0000 11.7882
v  -9.8125 0.0000 -4.0500
v  -11.5500 0.0000 -2.4586
v  -8.0984 0.0000 0.5500
v  -8.3597 0.0000 -2.8965
v  -7.0263 0.0000 -1.8221
v  -5.8122 0.0000 -0.8269
v  -4.1875 0.0000 4.2500
v  -2.1500 0.0000 2.3625
v  -2.8865 0.0000 1.6839
v  -5.7492 0.0000 2.7500
v  -3.7423 0.0000 0.9261
v  -4.7176 0.0000 0.0892
v  -19.9165 0.0000 -1.6477
v  -18.3492 0.0000 0.1034
v  -1.6744 0.0000 6.9072
v  -0.9000 0.0000 6.2875
v  -2.7875 0.0000 4.2500
v  -3.4883 0.0000 4.8964
v  -2.4579 0.0000 7.5209
v  -4.2209 0.0000 5.5474
v  -3.2505 0.0000 8.1285
v  -4.9855 0.0000 6.2028
v  -4.0522 0.0000 8.7301
v  -5.7819 0.0000 6.8628
v  -4.8629 0.0000 9.3256
v  -6.6102 0.0000 7.5272
v  -5.6828 0.0000 9.9151
v  -7.4704 0.0000 8.1961
v  -8.3625 0.0000 8.8695
v  -11.4942 0.0000 9.2459
v  -9.0427 0.0000 8.1428
v  -9.6851 0.0000 7.3784
v  -12.9166 0.0000 7.1289
v  -10.2896 0.0000 6.5762
v  -10.8564 0.0000 5.7362
v  -14.1492 0.0000 4.8031
v  -11.3853 0.0000 4.8585
v  -11.8764 0.0000 3.9431
v  -12.3297 0.0000 2.9898
v  -19.1852 0.0000 0.8195
v  -20.8351 0.0000 -0.8320
v  -22.9612 0.0000 3.8392
v  -23.6982 0.0000 0.9452
v  -22.5173 0.0000 3.7390
v  -23.2588 0.0000 0.7702
v  -22.0598 0.0000 3.6493
v  -22.8437 0.0000 0.5800
v  -21.5887 0.0000 3.5702
v  -22.4530 0.0000 0.3747
v  -21.7445 0.0000 -0.0813
v  -21.3112 0.0000 15.9456
v  -21.5500 0.0000 16.1625
v  -19.9211 0.0000 18.4000
v  -19.5562 0.0000 18.2125
v  -28.3343 0.0000 12.1466
v  -21.1040 0.0000 3.5016
v  -22.0866 0.0000 0.1543
v  -17.6405 0.0000 17.3425
v  -20.6057 0.0000 3.4436
v  -20.0938 0.0000 3.3961
v  -15.7961 0.0000 3.1563
v  -27.5547 0.0000 13.2036
v  -27.3250 0.0000 13.5500
v  -26.3217 0.0000 13.1200
v  -19.1852 0.0000 18.0295
v  -21.1092 0.0000 15.6771
v  -18.8082 0.0000 17.8510
v  -20.9439 0.0000 15.3570
v  -18.4250 0.0000 17.6770
v  -18.0358 0.0000 17.5075
v  -14.6577 0.0000 5.3061
v  -17.5234 0.0000 4.6343
v  -15.1729 0.0000 5.7985
v  -15.6949 0.0000 6.2803
v  -16.2236 0.0000 6.7515
v  -19.3156 0.0000 5.9962
v  -16.7590 0.0000 7.2121
v  -17.3011 0.0000 7.6621
v  -17.8500 0.0000 8.1016
v  -21.1727 0.0000 7.2418
v  -28.0593 0.0000 12.5019
v  -20.8153 0.0000 14.9852
v  -20.7235 0.0000 14.5618
v  -20.6684 0.0000 14.0868
v  -20.6500 0.0000 13.5602
v  -20.6500 0.0000 10.0477
v  -23.0947 0.0000 8.3713
v  -21.5538 0.0000 10.6183
v  -22.4742 0.0000 11.1655
v  -25.0816 0.0000 9.3846
v  -23.4112 0.0000 11.6893
v  -24.3648 0.0000 12.1896
v  -25.3349 0.0000 12.6665
v  -27.7994 0.0000 12.8543
v  -13.1000 0.0000 -18.4500
v  -15.8000 0.0000 -17.3773
v  -15.5389 0.0000 -16.9182
v  -10.9375 0.0000 -14.1000
v  -15.2833 0.0000 -16.4561
v  -15.0332 0.0000 -15.9909
v  -14.7885 0.0000 -15.5228
v  -14.5494 0.0000 -15.0515
v  -14.3157 0.0000 -14.5773
v  -14.0875 0.0000 -14.1000
v  -24.8000 0.0000 -14.1000
v  -24.8000 0.0000 -11.6000
v  -0.3000 0.0000 -11.6000
v  -0.3000 0.0000 -14.1000
v  -31.6564 0.0000 2.7677
v  -32.0500 0.0000 2.6000
v  -32.4485 0.0000 4.6429
v  -35.6000 0.0000 16.9008
v  -32.5500 0.0000 17.9000
v  -29.2000 0.0000 3.7102
v  -34.9842 0.0000 14.8577
v  -34.4046 0.0000 12.8147
v  -33.8612 0.0000 10.7717
v  -33.3541 0.0000 8.7287
v  -32.8832 0.0000 6.6858
v  -29.6207 0.0000 3.5606
v  -30.0369 0.0000 3.4081
v  -30.4486 0.0000 3.2526
v  -30.8557 0.0000 3.0940
v  -31.2584 0.0000 2.9323
v  -25.3612 0.0000 -5.3674
v  -26.7500 0.0000 -4.5625
v  -26.4675 0.0000 -4.2809
v  -17.2060 0.0000 -8.0879
v  -15.9500 0.0000 -9.1852
v  -18.1375 0.0000 -10.9000
v  -19.2094 0.0000 -9.8942
v  -18.4695 0.0000 -7.0334
v  -20.3342 0.0000 -8.9219
v  -19.7404 0.0000 -6.0214
v  -21.5117 0.0000 -7.9830
v  -21.0189 0.0000 -5.0521
v  -22.7421 0.0000 -7.0777
v  -22.3048 0.0000 -4.1254
v  -24.0253 0.0000 -6.2058
v  -23.5983 0.0000 -3.2414
v  -24.8992 0.0000 -2.4000
v  -25.1455 0.0000 -2.7363
v  -25.3979 0.0000 -3.0635
v  -25.6563 0.0000 -3.3815
v  -25.9206 0.0000 -3.6904
v  -26.1911 0.0000 -3.9902
v  -9.0344 0.0000 -10.8000
v  -10.7000 0.0000 -8.9734
v  -9.2219 0.0000 -7.9183
v  -7.6173 0.0000 -9.8514
v  -7.8283 0.0000 -6.9042
v  -6.2591 0.0000 -8.9226
v  -2.1266 0.0000 -2.4500
v  -0.3500 0.0000 -4.5750
v  -1.4142 0.0000 -5.4050
v  -3.0980 0.0000 -3.2587
v  -6.5190 0.0000 -5.9312
v  -4.9597 0.0000 -8.0135
v  -2.5372 0.0000 -6.2547
v  -4.1539 0.0000 -4.1085
v  -5.2943 0.0000 -4.9993
v  -3.7191 0.0000 -7.1242
v  -34.6359 0.0000 -8.1000
v  -36.4500 0.0000 -6.0289
v  -35.6349 0.0000 -5.3829
v  -33.9156 0.0000 -7.5959
v  -31.4462 0.0000 -1.7908
v  -30.5859 0.0000 -1.0000
v  -28.5500 0.0000 -3.3664
v  -29.5685 0.0000 -4.2147
v  -32.2990 0.0000 -2.5575
v  -30.5372 0.0000 -5.0057
v  -33.1443 0.0000 -3.3001
v  -31.4563 0.0000 -5.7393
v  -33.9820 0.0000 -4.0185
v  -32.3258 0.0000 -6.4155
v  -34.8122 0.0000 -4.7128
v  -33.1455 0.0000 -7.0344
v  -32.7234 0.0000 -17.4500
v  -34.5000 0.0000 -15.4828
v  -33.8534 0.0000 -14.9274
v  -31.8147 0.0000 -16.7363
v  -33.1490 0.0000 -14.3007
v  -30.9196 0.0000 -16.0165
v  -32.3868 0.0000 -13.6029
v  -30.0383 0.0000 -15.2907
v  -31.5667 0.0000 -12.8340
v  -29.1706 0.0000 -14.5589
v  -30.6888 0.0000 -11.9938
v  -28.3167 0.0000 -13.8211
v  -29.7530 0.0000 -11.0825
v  -27.4765 0.0000 -13.0772
v  -28.7594 0.0000 -10.1000
v  -26.6500 0.0000 -12.3273
v  18.4000 0.0000 9.2000
v  33.7500 0.0000 6.7000
v  27.3000 0.0000 6.7000
v  24.6000 0.0000 9.2000
v  33.7500 0.0000 -0.4000
v  27.3000 0.0000 2.1000
v  33.7500 0.0000 2.1000
v  27.3000 0.0000 -0.4000
v  24.6000 0.0000 -0.4000
v  18.4000 0.0000 2.1000
v  24.6000 0.0000 2.1000
v  18.4000 0.0000 -0.4000
v  24.6000 0.0000 6.7000
v  18.4000 0.0000 6.7000
v  28.8104 0.0000 14.9031
v  28.2500 0.0000 14.8500
v  28.3824 0.0000 15.3047
v  20.4781 0.0000 -13.1000
v  18.8500 0.0000 -11.2625
v  24.1758 0.0000 -7.4500
v  26.1008 0.0000 -9.1891
v  24.6000 0.0000 -4.9500
v  27.3000 0.0000 -4.9500
v  15.7000 0.0000 18.4500
v  18.4000 0.0000 18.4500
v  15.7000 0.0000 -7.4500
v  18.4000 0.0000 -4.9500
v  15.5000 0.0000 -16.4000
v  15.5000 0.0000 -13.9000
v  32.2820 0.0000 -13.9000
v  36.4133 0.0000 -16.4000
v  36.4133 0.0000 -13.8258
v  28.2719 0.0000 -7.6344
v  24.6000 0.0000 17.6500
v  27.3000 0.0000 17.6500
v  27.3000 0.0000 9.2000
v  33.7500 0.0000 9.2000
v  28.3046 0.0000 -7.6034
v  28.3387 0.0000 -7.5740
v  28.3744 0.0000 -7.5462
v  28.4115 0.0000 -7.5198
v  28.4502 0.0000 -7.4950
v  28.4904 0.0000 -7.4717
v  28.5320 0.0000 -7.4500
v  33.7500 0.0000 -4.9500
v  36.4500 0.0000 -7.4500
v  36.4500 0.0000 13.8336
v  33.7500 0.0000 13.3789
v  33.7191 0.0000 13.8223
v  36.3667 0.0000 14.8726
v  33.6265 0.0000 14.1974
v  36.1168 0.0000 15.7518
v  33.4720 0.0000 14.5043
v  35.7004 0.0000 16.4712
v  35.1173 0.0000 17.0307
v  33.2559 0.0000 14.7431
v  34.3677 0.0000 17.4303
v  32.9779 0.0000 14.9136
v  33.4515 0.0000 17.6701
v  32.6382 0.0000 15.0159
v  32.3688 0.0000 17.7500
v  32.2367 0.0000 15.0500
v  28.9547 0.0000 17.7500
v  31.6581 0.0000 15.0459
v  31.0825 0.0000 15.0337
v  28.8858 0.0000 17.3761
v  30.5100 0.0000 15.0133
v  28.8063 0.0000 16.9887
v  29.9404 0.0000 14.9847
v  28.7162 0.0000 16.5879
v  28.6155 0.0000 16.1736
v  29.3739 0.0000 14.9480
v  28.5043 0.0000 15.7459
v  2.4423 0.0000 7.9947
v  2.5844 0.0000 8.4500
v  3.3392 0.0000 7.2888
v  2.2913 0.0000 7.5364
v  12.6744 0.0000 1.4336
v  13.0125 0.0000 2.0633
v  15.2000 0.0000 0.4883
v  14.7899 0.0000 -0.1698
v  12.3055 0.0000 0.7782
v  14.3450 0.0000 -0.8609
v  11.9059 0.0000 0.0970
v  13.8651 0.0000 -1.5851
v  11.4755 0.0000 -0.6101
v  13.3504 0.0000 -2.3423
v  11.0144 0.0000 -1.3429
v  12.8008 0.0000 -3.1327
v  10.5226 0.0000 -2.1015
v  12.2163 0.0000 -3.9560
v  10.0000 0.0000 -2.8859
v  11.5969 0.0000 -4.8125
v  10.0000 0.0000 -3.6633
v  2.2000 0.0000 -10.5000
v  2.2000 0.0000 -7.9000
v  6.7820 0.0000 -7.9000
v  7.3000 0.0000 -10.5000
v  10.0000 0.0000 -17.8500
v  7.3000 0.0000 -17.8500
v  10.0000 0.0000 -10.5000
v  14.6000 0.0000 -7.9000
v  14.6000 0.0000 -10.5000
v  10.0000 0.0000 -7.9000
v  6.2478 0.0000 -5.8292
v  5.6354 0.0000 -3.8249
v  7.3000 0.0000 18.4500
v  10.0000 0.0000 18.4500
v  7.3000 0.0000 -2.6625
v  4.9448 0.0000 -1.8870
v  6.7075 0.0000 -0.6487
v  4.1759 0.0000 -0.0156
v  6.0879 0.0000 1.2230
v  3.3288 0.0000 1.7894
v  5.4413 0.0000 2.9526
v  2.4035 0.0000 3.5279
v  4.7676 0.0000 4.5401
v  4.0669 0.0000 5.9855
v  1.4000 0.0000 5.2000
v  1.5964 0.0000 5.6733
v  1.7837 0.0000 6.1436
v  1.9619 0.0000 6.6108
v  2.1311 0.0000 7.0751
# 358 vertices

vn 0.0000 1.0000 -0.0000
# 1 vertex normals

g Text001
usemtl wire_088088225
s 1
f 1//1 2//1 3//1 
f 4//1 5//1 6//1 
f 7//1 4//1 6//1 
f 8//1 7//1 6//1 
f 9//1 8//1 6//1 
f 10//1 9//1 6//1 
f 11//1 10//1 6//1 
f 12//1 11//1 6//1 
f 13//1 14//1 15//1 
f 16//1 17//1 18//1 
f 16//1 18//1 19//1 
f 20//1 16//1 19//1 
f 20//1 19//1 21//1 
f 22//1 20//1 21//1 
f 22//1 21//1 23//1 
f 24//1 22//1 23//1 
f 25//1 12//1 6//1 
f 26//1 27//1 28//1 
f 24//1 23//1 29//1 
f 30//1 24//1 29//1 
f 31//1 13//1 15//1 
f 31//1 15//1 32//1 
f 31//1 32//1 33//1 
f 34//1 31//1 33//1 
f 34//1 33//1 35//1 
f 34//1 35//1 36//1 
f 37//1 34//1 36//1 
f 37//1 36//1 38//1 
f 37//1 38//1 39//1 
f 40//1 37//1 39//1 
f 1//1 3//1 41//1 
f 42//1 43//1 44//1 
f 45//1 42//1 44//1 
f 46//1 45//1 44//1 
f 47//1 46//1 44//1 
f 48//1 49//1 50//1 
f 51//1 48//1 50//1 
f 51//1 50//1 52//1 
f 51//1 52//1 53//1 
f 30//1 29//1 54//1 
f 55//1 30//1 54//1 
f 56//1 57//1 58//1 
f 56//1 58//1 59//1 
f 60//1 56//1 59//1 
f 60//1 59//1 61//1 
f 62//1 60//1 61//1 
f 62//1 61//1 63//1 
f 64//1 62//1 63//1 
f 64//1 63//1 65//1 
f 66//1 64//1 65//1 
f 66//1 65//1 67//1 
f 68//1 66//1 67//1 
f 68//1 67//1 69//1 
f 39//1 68//1 69//1 
f 39//1 69//1 70//1 
f 40//1 39//1 70//1 
f 71//1 40//1 70//1 
f 71//1 70//1 72//1 
f 71//1 72//1 73//1 
f 74//1 71//1 73//1 
f 74//1 73//1 75//1 
f 74//1 75//1 76//1 
f 77//1 74//1 76//1 
f 77//1 76//1 78//1 
f 77//1 78//1 79//1 
f 77//1 79//1 80//1 
f 81//1 55//1 54//1 
f 81//1 54//1 82//1 
f 26//1 28//1 83//1 
f 84//1 26//1 83//1 
f 84//1 83//1 85//1 
f 86//1 84//1 85//1 
f 86//1 85//1 87//1 
f 88//1 86//1 87//1 
f 88//1 87//1 89//1 
f 90//1 88//1 89//1 
f 81//1 82//1 91//1 
f 92//1 93//1 94//1 
f 92//1 94//1 95//1 
f 1//1 41//1 96//1 
f 90//1 89//1 97//1 
f 98//1 90//1 97//1 
f 99//1 25//1 6//1 
f 98//1 97//1 100//1 
f 91//1 98//1 100//1 
f 81//1 91//1 100//1 
f 81//1 100//1 101//1 
f 81//1 101//1 102//1 
f 44//1 81//1 102//1 
f 103//1 104//1 105//1 
f 92//1 95//1 106//1 
f 107//1 92//1 106//1 
f 107//1 106//1 108//1 
f 109//1 107//1 108//1 
f 109//1 108//1 110//1 
f 111//1 99//1 6//1 
f 51//1 53//1 47//1 
f 51//1 47//1 44//1 
f 80//1 51//1 44//1 
f 80//1 44//1 102//1 
f 77//1 80//1 102//1 
f 112//1 77//1 102//1 
f 112//1 102//1 113//1 
f 114//1 112//1 113//1 
f 115//1 114//1 113//1 
f 116//1 115//1 113//1 
f 116//1 113//1 117//1 
f 118//1 116//1 117//1 
f 119//1 118//1 117//1 
f 120//1 119//1 117//1 
f 120//1 117//1 121//1 
f 6//1 120//1 121//1 
f 1//1 96//1 122//1 
f 123//1 109//1 110//1 
f 123//1 110//1 111//1 
f 123//1 111//1 6//1 
f 124//1 123//1 6//1 
f 125//1 124//1 6//1 
f 126//1 125//1 6//1 
f 127//1 126//1 6//1 
f 127//1 6//1 121//1 
f 127//1 121//1 128//1 
f 129//1 127//1 128//1 
f 130//1 129//1 128//1 
f 130//1 128//1 131//1 
f 132//1 130//1 131//1 
f 133//1 132//1 131//1 
f 133//1 131//1 1//1 
f 134//1 133//1 1//1 
f 134//1 1//1 122//1 
f 105//1 134//1 122//1 
f 105//1 122//1 135//1 
f 103//1 105//1 135//1 
f 136//1 137//1 138//1 
f 139//1 136//1 138//1 
f 139//1 138//1 140//1 
f 139//1 140//1 141//1 
f 139//1 141//1 142//1 
f 139//1 142//1 143//1 
f 139//1 143//1 144//1 
f 139//1 144//1 145//1 
f 145//1 146//1 147//1 
f 145//1 147//1 148//1 
f 139//1 145//1 148//1 
f 149//1 139//1 148//1 
f 150//1 151//1 152//1 
f 153//1 154//1 155//1 
f 156//1 153//1 155//1 
f 157//1 156//1 155//1 
f 158//1 157//1 155//1 
f 159//1 158//1 155//1 
f 160//1 159//1 155//1 
f 152//1 160//1 155//1 
f 152//1 155//1 161//1 
f 152//1 161//1 162//1 
f 152//1 162//1 163//1 
f 152//1 163//1 164//1 
f 152//1 164//1 165//1 
f 150//1 152//1 165//1 
f 166//1 167//1 168//1 
f 169//1 170//1 171//1 
f 169//1 171//1 172//1 
f 173//1 169//1 172//1 
f 173//1 172//1 174//1 
f 175//1 173//1 174//1 
f 175//1 174//1 176//1 
f 177//1 175//1 176//1 
f 177//1 176//1 178//1 
f 179//1 177//1 178//1 
f 179//1 178//1 180//1 
f 181//1 179//1 180//1 
f 181//1 180//1 166//1 
f 182//1 181//1 166//1 
f 183//1 182//1 166//1 
f 184//1 183//1 166//1 
f 185//1 184//1 166//1 
f 186//1 185//1 166//1 
f 187//1 186//1 166//1 
f 187//1 166//1 168//1 
f 188//1 189//1 190//1 
f 191//1 188//1 190//1 
f 191//1 190//1 192//1 
f 193//1 191//1 192//1 
f 194//1 195//1 196//1 
f 197//1 194//1 196//1 
f 193//1 192//1 198//1 
f 199//1 193//1 198//1 
f 197//1 196//1 200//1 
f 201//1 197//1 200//1 
f 202//1 201//1 200//1 
f 202//1 200//1 203//1 
f 202//1 203//1 199//1 
f 202//1 199//1 198//1 
f 204//1 205//1 206//1 
f 207//1 204//1 206//1 
f 208//1 209//1 210//1 
f 208//1 210//1 211//1 
f 212//1 208//1 211//1 
f 212//1 211//1 213//1 
f 214//1 212//1 213//1 
f 214//1 213//1 215//1 
f 216//1 214//1 215//1 
f 216//1 215//1 217//1 
f 218//1 216//1 217//1 
f 218//1 217//1 219//1 
f 206//1 218//1 219//1 
f 207//1 206//1 219//1 
f 220//1 221//1 222//1 
f 223//1 220//1 222//1 
f 223//1 222//1 224//1 
f 225//1 223//1 224//1 
f 225//1 224//1 226//1 
f 227//1 225//1 226//1 
f 227//1 226//1 228//1 
f 229//1 227//1 228//1 
f 229//1 228//1 230//1 
f 231//1 229//1 230//1 
f 231//1 230//1 232//1 
f 233//1 231//1 232//1 
f 233//1 232//1 234//1 
f 233//1 234//1 235//1 
f 236//1 237//1 238//1 
f 237//1 236//1 239//1 
f 240//1 241//1 242//1 
f 241//1 240//1 243//1 
f 244//1 245//1 246//1 
f 245//1 244//1 247//1 
f 246//1 238//1 241//1 
f 238//1 246//1 248//1 
f 236//1 238//1 248//1 
f 236//1 248//1 249//1 
f 250//1 251//1 252//1 
f 253//1 254//1 255//1 
f 256//1 253//1 255//1 
f 244//1 246//1 241//1 
f 244//1 241//1 243//1 
f 257//1 244//1 243//1 
f 257//1 243//1 258//1 
f 259//1 260//1 236//1 
f 261//1 259//1 236//1 
f 261//1 236//1 249//1 
f 261//1 249//1 245//1 
f 261//1 245//1 247//1 
f 261//1 247//1 262//1 
f 255//1 261//1 262//1 
f 255//1 262//1 257//1 
f 263//1 264//1 265//1 
f 266//1 263//1 265//1 
f 267//1 266//1 265//1 
f 268//1 267//1 265//1 
f 268//1 265//1 256//1 
f 269//1 270//1 271//1 
f 239//1 269//1 271//1 
f 237//1 239//1 271//1 
f 237//1 271//1 272//1 
f 255//1 257//1 258//1 
f 256//1 255//1 258//1 
f 268//1 256//1 258//1 
f 273//1 268//1 258//1 
f 274//1 273//1 258//1 
f 275//1 274//1 258//1 
f 276//1 275//1 258//1 
f 277//1 276//1 258//1 
f 278//1 277//1 258//1 
f 279//1 278//1 258//1 
f 279//1 258//1 280//1 
f 281//1 279//1 280//1 
f 282//1 281//1 280//1 
f 282//1 280//1 240//1 
f 282//1 240//1 242//1 
f 282//1 242//1 237//1 
f 282//1 237//1 272//1 
f 282//1 272//1 283//1 
f 282//1 283//1 284//1 
f 285//1 282//1 284//1 
f 285//1 284//1 286//1 
f 287//1 285//1 286//1 
f 287//1 286//1 288//1 
f 289//1 287//1 288//1 
f 290//1 289//1 288//1 
f 290//1 288//1 291//1 
f 292//1 290//1 291//1 
f 292//1 291//1 293//1 
f 294//1 292//1 293//1 
f 294//1 293//1 295//1 
f 296//1 294//1 295//1 
f 296//1 295//1 297//1 
f 298//1 296//1 297//1 
f 298//1 297//1 299//1 
f 298//1 299//1 300//1 
f 301//1 298//1 300//1 
f 301//1 300//1 302//1 
f 303//1 301//1 302//1 
f 303//1 302//1 304//1 
f 305//1 303//1 304//1 
f 306//1 305//1 304//1 
f 306//1 304//1 307//1 
f 308//1 306//1 307//1 
f 308//1 307//1 250//1 
f 308//1 250//1 252//1 
f 309//1 310//1 311//1 
f 312//1 309//1 311//1 
f 313//1 314//1 315//1 
f 313//1 315//1 316//1 
f 317//1 313//1 316//1 
f 317//1 316//1 318//1 
f 319//1 317//1 318//1 
f 319//1 318//1 320//1 
f 321//1 319//1 320//1 
f 321//1 320//1 322//1 
f 323//1 321//1 322//1 
f 323//1 322//1 324//1 
f 325//1 323//1 324//1 
f 325//1 324//1 326//1 
f 327//1 325//1 326//1 
f 327//1 326//1 328//1 
f 327//1 328//1 329//1 
f 330//1 331//1 332//1 
f 333//1 330//1 332//1 
f 334//1 335//1 333//1 
f 336//1 334//1 333//1 
f 337//1 338//1 336//1 
f 339//1 337//1 336//1 
f 339//1 336//1 333//1 
f 339//1 333//1 332//1 
f 329//1 339//1 332//1 
f 329//1 332//1 340//1 
f 329//1 340//1 341//1 
f 342//1 343//1 327//1 
f 344//1 342//1 327//1 
f 327//1 329//1 341//1 
f 344//1 327//1 341//1 
f 344//1 341//1 345//1 
f 346//1 344//1 345//1 
f 346//1 345//1 347//1 
f 348//1 346//1 347//1 
f 348//1 347//1 349//1 
f 350//1 348//1 349//1 
f 350//1 349//1 351//1 
f 352//1 350//1 351//1 
f 353//1 352//1 351//1 
f 353//1 351//1 354//1 
f 353//1 354//1 355//1 
f 353//1 355//1 356//1 
f 311//1 353//1 356//1 
f 311//1 356//1 357//1 
f 311//1 357//1 358//1 
f 312//1 311//1 358//1 
# 0 polygons - 348 triangles

