# 3ds Max Wavefront OBJ Exporter v0.97b - (c)2007 guruware
# 创建的文件:25.07.2017 10:58:19

mtllib 窗.mtl

#
# object Pane02
#

v  -98.9536 -3245.7280 4212.1421
v  -172.4180 -3245.7312 -4206.2988
v  98.9824 -3245.7322 -4208.6675
v  172.4488 -3245.7292 4209.7734
v  172.4487 3534.9021 4209.7715
v  -98.9537 3534.9021 4212.1411
v  98.9823 3534.8989 -4208.6694
v  -172.4201 3534.8992 -4206.3008
v  -101.0332 3342.9976 3973.8828
v  -170.3405 3342.9946 -3968.0432
v  101.0599 3342.9946 -3970.4124
v  170.3692 3342.9971 3971.5151
v  170.3693 -3053.8250 3971.5168
v  -101.0311 -3053.8252 3973.8848
v  101.0619 -3053.8279 -3970.4094
v  -170.3404 -3053.8276 -3968.0408
v  45.3895 -3084.3833 -1526.5007
v  45.3875 3373.5515 -1526.5032
v  49.0799 3373.5518 -1103.2002
v  49.0838 -3084.3831 -1103.1981
v  -72.0227 -3084.3833 -1525.4768
v  -68.3282 -3084.3831 -1102.1742
v  -68.3303 3373.5518 -1102.1766
v  -72.0247 3373.5515 -1525.4785
v  67.6665 -3084.3826 1026.2543
v  67.6645 3373.5525 1026.2518
v  71.3589 3373.5525 1449.5552
v  71.3609 -3084.3823 1449.5574
v  -49.7456 -3084.3826 1027.2795
v  -46.0531 -3084.3823 1450.5818
v  -46.0532 3373.5525 1450.5798
v  -49.7476 3373.5525 1027.2772
v  93.9384 -31.5394 4036.7078
v  23.5045 -31.5421 -4034.2595
v  23.5045 320.7094 -4034.2595
v  93.9384 320.7121 4036.7075
v  -23.4757 -31.5393 4037.7332
v  -23.4757 320.7116 4037.7332
v  -93.9096 320.7089 -4033.2356
v  -93.9096 -31.5421 -4033.2356
v  -470.2756 -3534.8999 4417.4863
v  -547.2992 -3534.9023 -4408.6030
v  470.2770 -3534.9023 -4417.4829
v  547.2996 -3534.8992 4408.6064
v  545.8184 -3266.3164 4238.8740
v  471.7581 -3266.3191 -4247.7510
v  -545.8172 -3266.3193 -4238.8701
v  -471.7568 -3266.3164 4247.7539
# 48 vertices

vn -0.0000 -1.0000 0.0000
vn 0.0087 0.0000 1.0000
vn 0.0000 1.0000 -0.0000
vn -0.0000 1.0000 -0.0000
vn -0.0087 -0.0000 -1.0000
vn 0.0000 -1.0000 0.0000
vn 1.0000 0.0000 -0.0087
vn 1.0000 -0.0000 -0.0087
vn -1.0000 -0.0000 0.0087
vn -1.0000 0.0000 0.0087
vn -0.0000 1.0000 0.0000
# 11 vertex normals

vt 0.3200 0.7151 0.0000
vt 0.0357 0.7151 0.0000
vt 0.0357 0.7041 0.0000
vt 0.3200 0.7041 0.0000
vt 0.1429 0.0810 0.0000
vt 0.1429 0.3561 0.0000
vt 0.1318 0.3561 0.0000
vt 0.2251 0.3698 0.0000
vt 0.2141 0.6450 0.0000
vt 0.2141 0.3698 0.0000
vt 0.0673 0.0681 0.0000
vt 0.0673 0.3523 0.0000
vt 0.0563 0.3523 0.0000
vt 0.0329 0.0681 0.0000
vt 0.0219 0.3523 0.0000
vt 0.0219 0.0681 0.0000
vt 0.2562 0.3698 0.0000
vt 0.2562 0.6450 0.0000
vt 0.2452 0.6450 0.0000
vt 0.1840 0.0810 0.0000
vt 0.1730 0.3561 0.0000
vt 0.1730 0.0810 0.0000
vt 0.2141 0.3497 0.0000
vt 0.2141 0.0815 0.0000
vt 0.2251 0.0815 0.0000
vt 0.2251 0.3497 0.0000
vt 0.2562 0.0901 0.0000
vt 0.2562 0.3497 0.0000
vt 0.2452 0.3497 0.0000
vt 0.2873 0.0971 0.0000
vt 0.2763 0.3567 0.0000
vt 0.2763 0.0971 0.0000
vt 0.2873 0.3768 0.0000
vt 0.2873 0.6450 0.0000
vt 0.2763 0.6450 0.0000
vt 0.3185 0.3768 0.0000
vt 0.3074 0.6450 0.0000
vt 0.3074 0.3768 0.0000
vt 0.3185 0.0971 0.0000
vt 0.3185 0.3567 0.0000
vt 0.3074 0.3567 0.0000
vt 0.3496 0.3854 0.0000
vt 0.3386 0.6450 0.0000
vt 0.3386 0.3854 0.0000
vt 0.5660 0.3430 0.0000
vt 0.5580 0.3508 0.0000
vt 0.5660 0.0834 0.0000
vt 0.4255 0.0679 0.0000
vt 0.4335 0.0757 0.0000
vt 0.4255 0.3430 0.0000
vt 0.3386 0.0810 0.0000
vt 0.3464 0.3572 0.0000
vt 0.3386 0.3653 0.0000
vt 0.5301 0.3688 0.0000
vt 0.5379 0.3768 0.0000
vt 0.5379 0.6450 0.0000
vt 0.3976 0.6369 0.0000
vt 0.4054 0.3607 0.0000
vt 0.4054 0.6450 0.0000
vt 0.4952 0.0748 0.0000
vt 0.5030 0.0668 0.0000
vt 0.4952 0.3430 0.0000
vt 0.4952 0.6372 0.0000
vt 0.5033 0.3698 0.0000
vt 0.5033 0.6450 0.0000
vt 0.6277 0.3854 0.0000
vt 0.6358 0.3776 0.0000
vt 0.6277 0.6450 0.0000
vt 0.6009 0.3854 0.0000
vt 0.6009 0.6450 0.0000
vt 0.5929 0.3776 0.0000
vt 0.4255 0.6450 0.0000
vt 0.4255 0.3698 0.0000
vt 0.4335 0.6372 0.0000
vt 0.3775 0.3607 0.0000
vt 0.3775 0.6450 0.0000
vt 0.3697 0.6369 0.0000
vt 0.4682 0.0668 0.0000
vt 0.4604 0.3430 0.0000
vt 0.4604 0.0748 0.0000
vt 0.3775 0.3326 0.0000
vt 0.3697 0.3406 0.0000
vt 0.3697 0.0563 0.0000
vt 0.4054 0.0724 0.0000
vt 0.4054 0.3406 0.0000
vt 0.3976 0.0644 0.0000
vt 0.4604 0.3776 0.0000
vt 0.4684 0.3698 0.0000
vt 0.4684 0.6450 0.0000
vt 0.5580 0.6372 0.0000
vt 0.5580 0.3776 0.0000
vt 0.5660 0.6450 0.0000
vt 0.1318 0.6450 0.0000
vt 0.1318 0.3829 0.0000
vt 0.1461 0.3829 0.0000
vt 0.1461 0.6450 0.0000
vt 0.1730 0.3829 0.0000
vt 0.1873 0.3829 0.0000
vt 0.1873 0.6450 0.0000
vt 0.1730 0.6450 0.0000
vt 0.3122 0.0627 0.0000
vt 0.3122 0.0770 0.0000
vt 0.3074 0.0770 0.0000
vt 0.4255 0.0410 0.0000
vt 0.4255 0.0268 0.0000
vt 0.4303 0.0268 0.0000
vt 0.7669 0.3829 0.0000
vt 0.7669 0.6450 0.0000
vt 0.7621 0.6450 0.0000
vt 0.7372 0.3628 0.0000
vt 0.7372 0.1008 0.0000
vt 0.7420 0.1008 0.0000
vt 0.3745 0.0219 0.0000
vt 0.3745 0.0362 0.0000
vt 0.3697 0.0362 0.0000
vt 0.3386 0.0609 0.0000
vt 0.3386 0.0466 0.0000
vt 0.3433 0.0466 0.0000
vt 0.6922 0.1008 0.0000
vt 0.6922 0.3628 0.0000
vt 0.6875 0.3628 0.0000
vt 0.6626 0.3523 0.0000
vt 0.6626 0.0903 0.0000
vt 0.6673 0.0903 0.0000
vt 0.0907 0.6450 0.0000
vt 0.0907 0.3829 0.0000
vt 0.1050 0.3829 0.0000
vt 0.1050 0.6450 0.0000
vt 0.0907 0.0941 0.0000
vt 0.1050 0.0941 0.0000
vt 0.1050 0.3561 0.0000
vt 0.0907 0.3561 0.0000
vt 0.2811 0.0627 0.0000
vt 0.2811 0.0770 0.0000
vt 0.2763 0.0770 0.0000
vt 0.2452 0.0700 0.0000
vt 0.2452 0.0557 0.0000
vt 0.2500 0.0557 0.0000
vt 0.7420 0.3829 0.0000
vt 0.7420 0.6450 0.0000
vt 0.7372 0.6450 0.0000
vt 0.7123 0.3628 0.0000
vt 0.7123 0.1008 0.0000
vt 0.7171 0.1008 0.0000
vt 0.0267 0.0337 0.0000
vt 0.0267 0.0479 0.0000
vt 0.0219 0.0479 0.0000
vt 0.2141 0.0614 0.0000
vt 0.2141 0.0471 0.0000
vt 0.2188 0.0471 0.0000
vt 0.7171 0.3829 0.0000
vt 0.7171 0.6450 0.0000
vt 0.7123 0.6450 0.0000
vt 0.6875 0.6450 0.0000
vt 0.6875 0.3829 0.0000
vt 0.6922 0.3829 0.0000
vt 0.0362 0.3724 0.0000
vt 0.0362 0.6450 0.0000
vt 0.0219 0.6450 0.0000
vt 0.0219 0.3724 0.0000
vt 0.0563 0.3724 0.0000
vt 0.0706 0.3724 0.0000
vt 0.0706 0.6450 0.0000
vt 0.0563 0.6450 0.0000
vt 0.0955 0.0529 0.0000
vt 0.0955 0.0672 0.0000
vt 0.0907 0.0672 0.0000
vt 0.0563 0.0479 0.0000
vt 0.0563 0.0337 0.0000
vt 0.0611 0.0337 0.0000
vt 0.6325 0.0783 0.0000
vt 0.6325 0.3508 0.0000
vt 0.6277 0.3508 0.0000
vt 0.6626 0.6450 0.0000
vt 0.6626 0.3724 0.0000
vt 0.6673 0.3724 0.0000
vt 0.1366 0.0466 0.0000
vt 0.1366 0.0608 0.0000
vt 0.1318 0.0608 0.0000
vt 0.1730 0.0608 0.0000
vt 0.1730 0.0466 0.0000
vt 0.1777 0.0466 0.0000
vt 0.5976 0.0783 0.0000
vt 0.5976 0.3508 0.0000
vt 0.5929 0.3508 0.0000
vt 0.5301 0.3486 0.0000
vt 0.5301 0.0761 0.0000
vt 0.5349 0.0761 0.0000
vt 0.3200 0.9781 0.0000
vt 0.0219 0.9781 0.0000
vt 0.0219 0.9368 0.0000
vt 0.3200 0.9368 0.0000
vt 0.0334 0.8818 0.0000
vt 0.3200 0.8818 0.0000
vt 0.3200 0.9231 0.0000
vt 0.0334 0.8269 0.0000
vt 0.3200 0.8682 0.0000
vt 0.0334 0.8682 0.0000
vt 0.3200 0.7777 0.0000
vt 0.0277 0.7886 0.0000
vt 0.0219 0.7777 0.0000
vt 0.3200 0.7531 0.0000
vt 0.3142 0.7640 0.0000
vt 0.0277 0.7640 0.0000
vt 0.3200 0.8132 0.0000
vt 0.0219 0.8132 0.0000
vt 0.0277 0.8023 0.0000
vt 0.3200 0.7394 0.0000
vt 0.0274 0.7395 0.0000
vt 0.3138 0.7288 0.0000
# 210 texture coords

g Pane02
usemtl wire_153228153
s 1
f 1/1/1 2/2/1 3/3/1 4/4/1 
s 4
f 4/5/2 5/6/2 6/7/2 
f 4/8/2 6/9/2 1/10/2 
s 2
f 5/11/3 7/12/3 8/13/3 
f 5/14/4 8/15/4 6/16/4 
s 4
f 7/17/5 3/18/5 2/19/5 
f 7/20/5 2/21/5 8/22/5 
s 1
f 9/23/1 10/24/6 11/25/6 12/26/1 
s 4
f 12/27/5 13/28/5 14/29/5 
f 12/30/5 14/31/5 9/32/5 
s 2
f 13/33/3 15/34/3 16/35/3 
f 13/36/4 16/37/4 14/38/4 
s 4
f 15/39/2 11/40/2 10/41/2 
f 15/42/2 10/43/2 16/44/2 
s 16
f 15/45/7 3/46/7 11/47/7 
f 7/48/7 11/49/7 3/50/7 
f 5/51/8 11/52/8 7/53/8 
f 5/54/8 12/55/8 11/56/8 
f 15/57/8 4/58/8 3/59/8 
f 13/60/7 4/61/7 15/62/7 
f 13/63/7 5/64/7 4/65/7 
f 12/66/7 5/67/7 13/68/7 
f 16/69/9 10/70/9 2/71/9 
f 8/72/9 2/73/9 10/74/9 
f 6/75/9 8/76/9 10/77/9 
f 6/78/10 10/79/10 9/80/10 
f 16/81/9 2/82/9 1/83/9 
f 14/84/10 16/85/10 1/86/10 
f 14/87/9 1/88/9 6/89/9 
f 9/90/9 14/91/9 6/92/9 
s 2
f 17/93/7 18/94/7 19/95/7 20/96/7 
s 4
f 21/97/9 22/98/9 23/99/9 24/100/9 
s 8
f 19/101/4 18/102/4 24/103/4 
f 24/104/4 23/105/4 19/106/4 
s 16
f 18/107/5 17/108/5 21/109/5 
f 21/110/5 24/111/5 18/112/5 
s 32
f 17/113/6 20/114/6 22/115/6 
f 22/116/6 21/117/6 17/118/6 
s 64
f 20/119/2 19/120/2 23/121/2 
f 23/122/2 22/123/2 20/124/2 
s 2
f 25/125/7 26/126/7 27/127/7 28/128/7 
s 4
f 29/129/9 30/130/9 31/131/9 32/132/9 
s 8
f 27/133/11 26/134/11 32/135/11 
f 32/136/11 31/137/11 27/138/11 
s 16
f 26/139/5 25/140/5 29/141/5 
f 29/142/5 32/143/5 26/144/5 
s 32
f 25/145/6 28/146/6 30/147/6 
f 30/148/6 29/149/6 25/150/6 
s 64
f 28/151/2 27/152/2 31/153/2 
f 31/154/2 30/155/2 28/156/2 
s 2
f 33/157/7 34/158/7 35/159/7 36/160/7 
s 4
f 37/161/9 38/162/9 39/163/9 40/164/9 
s 8
f 35/165/5 34/166/5 40/167/5 
f 40/168/5 39/169/5 35/170/5 
s 16
f 34/171/1 33/172/1 37/173/1 
f 37/174/1 40/175/1 34/176/1 
s 32
f 33/177/2 36/178/2 38/179/2 
f 38/180/2 37/181/2 33/182/2 
s 64
f 36/183/4 35/184/4 39/185/4 
f 39/186/4 38/187/4 36/188/4 
s 1
f 41/189/6 42/190/1 43/191/1 44/192/6 
s 2
f 45/193/4 46/194/4 47/195/4 
f 45/196/3 47/197/3 48/198/3 
s 16
f 43/199/8 45/200/8 44/201/8 
f 43/202/7 46/203/7 45/204/7 
f 42/205/10 41/206/10 48/207/10 
f 42/208/10 48/209/10 47/210/10 
# 9 polygons - 58 triangles

