# 3ds Max Wavefront OBJ Exporter v0.97b - (c)2007 guruware
# 创建的文件:12.03.2018 14:11:58

mtllib 风机.mtl

#
# object Text001
#

v  -3.0029 0.0000 6.9086
v  -3.4750 0.0000 6.7250
v  -3.5406 0.0000 7.9040
v  -37.6250 0.0000 15.5375
v  -35.4047 0.0000 18.1250
v  -34.6867 0.0000 16.9774
v  -37.0580 0.0000 14.5744
v  -34.0389 0.0000 15.8117
v  -36.5408 0.0000 13.5841
v  -33.4614 0.0000 14.6279
v  -36.0734 0.0000 12.5666
v  -32.9542 0.0000 13.4261
v  -35.6559 0.0000 11.5219
v  -32.5172 0.0000 12.2063
v  -35.2882 0.0000 10.4501
v  -32.1504 0.0000 10.9684
v  -34.9703 0.0000 9.3511
v  -31.8539 0.0000 9.7125
v  -34.7023 0.0000 8.2250
v  -31.6207 0.0000 8.4067
v  -34.4961 0.0000 7.0863
v  -31.4234 0.0000 6.9352
v  -34.3216 0.0000 5.8013
v  -31.2620 0.0000 5.2981
v  -34.1788 0.0000 4.3701
v  -31.1364 0.0000 3.4953
v  -34.0678 0.0000 2.7926
v  -31.0468 0.0000 1.5268
v  -33.9884 0.0000 1.0689
v  -30.9929 0.0000 -0.6073
v  -33.9409 0.0000 -0.8010
v  -30.9750 0.0000 -2.9070
v  -33.9250 0.0000 -2.8172
v  -33.9250 0.0000 -16.0750
v  -30.9750 0.0000 -13.2750
v  -6.5750 0.0000 -16.0750
v  -9.5250 0.0000 -13.2750
v  -6.5750 0.0000 4.1336
v  -9.5250 0.0000 4.2242
v  -6.5575 0.0000 5.9548
v  -9.5002 0.0000 6.4210
v  -6.5048 0.0000 7.6113
v  -9.4256 0.0000 8.3919
v  -6.4172 0.0000 9.1032
v  -9.3014 0.0000 10.1367
v  -6.2944 0.0000 10.4303
v  -9.1275 0.0000 11.6556
v  -6.1365 0.0000 11.5927
v  -8.9040 0.0000 12.9485
v  -5.9436 0.0000 12.5904
v  -8.6307 0.0000 14.0154
v  -5.7156 0.0000 13.4234
v  -8.3078 0.0000 14.8562
v  -5.6051 0.0000 13.6494
v  -7.9038 0.0000 15.5908
v  -5.4870 0.0000 13.8405
v  -7.4711 0.0000 16.2124
v  -5.3612 0.0000 13.9969
v  -5.2279 0.0000 14.1186
v  -7.0099 0.0000 16.7209
v  -5.0869 0.0000 14.2055
v  -6.5201 0.0000 17.1165
v  -6.0016 0.0000 17.3990
v  -4.9383 0.0000 14.2576
v  -5.4546 0.0000 17.5685
v  -4.8789 0.0000 17.6250
v  -4.7820 0.0000 14.2750
v  -4.1316 0.0000 17.5504
v  -3.4701 0.0000 17.3265
v  -4.6197 0.0000 14.2486
v  -2.8944 0.0000 16.9533
v  -2.4044 0.0000 16.4309
v  -4.4741 0.0000 14.1693
v  -2.0002 0.0000 15.7592
v  -4.3452 0.0000 14.0371
v  -1.6818 0.0000 14.9382
v  -4.2332 0.0000 13.8520
v  -1.4492 0.0000 13.9680
v  -4.1379 0.0000 13.6141
v  -4.0594 0.0000 13.3233
v  -1.3341 0.0000 13.2614
v  -3.9977 0.0000 12.9797
v  -3.9139 0.0000 12.3716
v  -1.2205 0.0000 12.4930
v  -3.8332 0.0000 11.6684
v  -1.1084 0.0000 11.6629
v  -3.7555 0.0000 10.8700
v  -0.9978 0.0000 10.7709
v  -3.6808 0.0000 9.9765
v  -0.8887 0.0000 9.8171
v  -3.6092 0.0000 8.9878
v  -0.7811 0.0000 8.8016
v  -0.6750 0.0000 7.7242
v  -1.0029 0.0000 7.6223
v  -1.3548 0.0000 7.5068
v  -1.7307 0.0000 7.3777
v  -2.1307 0.0000 7.2349
v  -2.5548 0.0000 7.0786
v  -28.9535 0.0000 10.7111
v  -30.2250 0.0000 12.2617
v  -29.8164 0.0000 12.5434
v  -28.1110 0.0000 13.8386
v  -27.8375 0.0000 14.0750
v  -26.6553 0.0000 12.6048
v  -20.0977 0.0000 -1.8703
v  -26.3375 0.0000 -10.6250
v  -28.6250 0.0000 -8.9227
v  -21.8000 0.0000 0.8398
v  -20.0375 0.0000 3.4672
v  -13.4625 0.0000 13.4750
v  -10.8750 0.0000 11.6984
v  -18.2977 0.0000 0.7211
v  -13.0720 0.0000 -8.5598
v  -12.2750 0.0000 -10.1539
v  -14.7750 0.0000 -11.3750
v  -15.4991 0.0000 -9.9720
v  -16.2353 0.0000 -8.5841
v  -13.8901 0.0000 -6.9792
v  -16.9836 0.0000 -7.2113
v  -14.7293 0.0000 -5.4121
v  -17.7440 0.0000 -5.8534
v  -15.5897 0.0000 -3.8585
v  -18.5165 0.0000 -4.5107
v  -16.4712 0.0000 -2.3184
v  -19.3010 0.0000 -3.1830
v  -17.3739 0.0000 -0.7919
v  -22.9356 0.0000 2.5527
v  -21.0839 0.0000 5.0277
v  -24.0939 0.0000 4.2384
v  -22.1529 0.0000 6.5732
v  -25.2749 0.0000 5.8972
v  -23.2445 0.0000 8.1037
v  -26.4784 0.0000 7.5289
v  -24.3588 0.0000 9.6191
v  -27.7047 0.0000 9.1335
v  -25.4957 0.0000 11.1195
v  -29.4303 0.0000 12.8176
v  -29.0667 0.0000 13.0842
v  -28.7256 0.0000 13.3432
v  -28.4071 0.0000 13.5947
v  35.1980 0.0000 5.7032
v  34.8250 0.0000 5.5250
v  34.7780 0.0000 6.4552
v  11.0250 0.0000 15.7875
v  13.2086 0.0000 18.2750
v  14.9640 0.0000 16.4272
v  12.5770 0.0000 14.2027
v  16.4493 0.0000 14.2823
v  13.8903 0.0000 12.3841
v  17.6645 0.0000 11.8404
v  14.9648 0.0000 10.3317
v  18.6097 0.0000 9.1014
v  15.8005 0.0000 8.0454
v  19.2849 0.0000 6.0654
v  16.3975 0.0000 5.5253
v  19.6900 0.0000 2.7324
v  16.7556 0.0000 2.7714
v  16.8750 0.0000 -0.2164
v  19.8250 0.0000 -0.8977
v  16.8750 0.0000 -15.9250
v  19.8250 0.0000 -13.1250
v  30.6250 0.0000 -15.9250
v  27.6750 0.0000 -13.1250
v  30.6250 0.0000 11.8766
v  27.6750 0.0000 12.3641
v  30.6516 0.0000 12.3670
v  27.7475 0.0000 13.4812
v  30.7312 0.0000 12.7819
v  27.9649 0.0000 14.4266
v  30.8639 0.0000 13.1214
v  28.3272 0.0000 15.2000
v  31.0497 0.0000 13.3855
v  28.8344 0.0000 15.8016
v  29.4866 0.0000 16.2313
v  30.2837 0.0000 16.4891
v  31.2887 0.0000 13.5741
v  31.2258 0.0000 16.5750
v  31.5807 0.0000 13.6873
v  33.1867 0.0000 16.5750
v  31.9258 0.0000 13.7250
v  32.7805 0.0000 13.7250
v  33.1030 0.0000 13.6828
v  34.0426 0.0000 16.4954
v  34.7928 0.0000 16.2564
v  33.3905 0.0000 13.5561
v  35.4374 0.0000 15.8582
v  35.9764 0.0000 15.3008
v  33.6432 0.0000 13.3450
v  36.4097 0.0000 14.5840
v  33.8610 0.0000 13.0495
v  36.7374 0.0000 13.7080
v  34.0438 0.0000 12.6695
v  36.9594 0.0000 12.6727
v  34.1917 0.0000 12.2051
v  37.6250 0.0000 6.7094
v  34.3047 0.0000 11.6563
v  34.4064 0.0000 10.8347
v  34.4990 0.0000 9.9950
v  34.5824 0.0000 9.1372
v  34.6567 0.0000 8.2614
v  37.1980 0.0000 6.5492
v  34.7219 0.0000 7.3673
v  36.7800 0.0000 6.3860
v  36.3711 0.0000 6.2198
v  35.9711 0.0000 6.0506
v  35.5800 0.0000 5.8784
v  0.3250 0.0000 4.7750
v  1.5461 0.0000 8.0250
v  2.3682 0.0000 6.8726
v  3.1509 0.0000 5.6222
v  1.4617 0.0000 2.9927
v  3.8944 0.0000 4.2737
v  9.1750 0.0000 -1.8047
v  13.1258 0.0000 2.3750
v  15.1250 0.0000 0.3375
v  10.6531 0.0000 -3.8750
v  9.1750 0.0000 -2.3969
v  2.5010 0.0000 1.1711
v  4.5985 0.0000 2.8272
v  5.2633 0.0000 1.2826
v  3.4427 0.0000 -0.6897
v  5.8888 0.0000 -0.3601
v  4.2869 0.0000 -2.5897
v  6.4750 0.0000 -2.1008
v  5.0335 0.0000 -4.5289
v  0.6750 0.0000 -11.0250
v  0.6750 0.0000 -8.5250
v  6.2344 0.0000 -8.5250
v  6.4750 0.0000 -11.0250
v  9.1750 0.0000 -18.2750
v  6.4750 0.0000 -18.2750
v  9.1750 0.0000 -11.0250
v  14.3250 0.0000 -8.5250
v  14.3250 0.0000 -11.0250
v  9.1750 0.0000 -8.5250
v  5.6827 0.0000 -6.5073
v  6.4750 0.0000 17.7250
v  9.1750 0.0000 17.7250
# 238 vertices

vn 0.0000 1.0000 -0.0000
# 1 vertex normals

g Text001
usemtl wire_229166215
s 1
f 1//1 2//1 3//1 
f 4//1 5//1 6//1 
f 7//1 4//1 6//1 
f 7//1 6//1 8//1 
f 9//1 7//1 8//1 
f 9//1 8//1 10//1 
f 11//1 9//1 10//1 
f 11//1 10//1 12//1 
f 13//1 11//1 12//1 
f 13//1 12//1 14//1 
f 15//1 13//1 14//1 
f 15//1 14//1 16//1 
f 17//1 15//1 16//1 
f 17//1 16//1 18//1 
f 19//1 17//1 18//1 
f 19//1 18//1 20//1 
f 21//1 19//1 20//1 
f 21//1 20//1 22//1 
f 23//1 21//1 22//1 
f 23//1 22//1 24//1 
f 25//1 23//1 24//1 
f 25//1 24//1 26//1 
f 27//1 25//1 26//1 
f 27//1 26//1 28//1 
f 29//1 27//1 28//1 
f 29//1 28//1 30//1 
f 31//1 29//1 30//1 
f 31//1 30//1 32//1 
f 33//1 31//1 32//1 
f 34//1 33//1 32//1 
f 34//1 32//1 35//1 
f 36//1 34//1 35//1 
f 36//1 35//1 37//1 
f 38//1 36//1 37//1 
f 38//1 37//1 39//1 
f 40//1 38//1 39//1 
f 40//1 39//1 41//1 
f 42//1 40//1 41//1 
f 42//1 41//1 43//1 
f 44//1 42//1 43//1 
f 44//1 43//1 45//1 
f 46//1 44//1 45//1 
f 46//1 45//1 47//1 
f 48//1 46//1 47//1 
f 48//1 47//1 49//1 
f 50//1 48//1 49//1 
f 50//1 49//1 51//1 
f 52//1 50//1 51//1 
f 52//1 51//1 53//1 
f 54//1 52//1 53//1 
f 54//1 53//1 55//1 
f 56//1 54//1 55//1 
f 56//1 55//1 57//1 
f 58//1 56//1 57//1 
f 59//1 58//1 57//1 
f 59//1 57//1 60//1 
f 61//1 59//1 60//1 
f 61//1 60//1 62//1 
f 61//1 62//1 63//1 
f 64//1 61//1 63//1 
f 64//1 63//1 65//1 
f 64//1 65//1 66//1 
f 67//1 64//1 66//1 
f 67//1 66//1 68//1 
f 67//1 68//1 69//1 
f 70//1 67//1 69//1 
f 70//1 69//1 71//1 
f 70//1 71//1 72//1 
f 73//1 70//1 72//1 
f 73//1 72//1 74//1 
f 75//1 73//1 74//1 
f 75//1 74//1 76//1 
f 77//1 75//1 76//1 
f 77//1 76//1 78//1 
f 79//1 77//1 78//1 
f 80//1 79//1 78//1 
f 80//1 78//1 81//1 
f 82//1 80//1 81//1 
f 83//1 82//1 81//1 
f 83//1 81//1 84//1 
f 85//1 83//1 84//1 
f 85//1 84//1 86//1 
f 87//1 85//1 86//1 
f 87//1 86//1 88//1 
f 89//1 87//1 88//1 
f 89//1 88//1 90//1 
f 91//1 89//1 90//1 
f 91//1 90//1 92//1 
f 3//1 91//1 92//1 
f 3//1 92//1 93//1 
f 3//1 93//1 94//1 
f 3//1 94//1 95//1 
f 3//1 95//1 96//1 
f 3//1 96//1 97//1 
f 3//1 97//1 98//1 
f 1//1 3//1 98//1 
f 99//1 100//1 101//1 
f 102//1 103//1 104//1 
f 105//1 106//1 107//1 
f 105//1 107//1 108//1 
f 109//1 110//1 111//1 
f 109//1 111//1 112//1 
f 113//1 114//1 115//1 
f 113//1 115//1 116//1 
f 113//1 116//1 117//1 
f 118//1 113//1 117//1 
f 118//1 117//1 119//1 
f 120//1 118//1 119//1 
f 120//1 119//1 121//1 
f 122//1 120//1 121//1 
f 122//1 121//1 123//1 
f 124//1 122//1 123//1 
f 124//1 123//1 125//1 
f 126//1 124//1 125//1 
f 126//1 125//1 105//1 
f 112//1 126//1 105//1 
f 112//1 105//1 108//1 
f 109//1 112//1 108//1 
f 109//1 108//1 127//1 
f 128//1 109//1 127//1 
f 128//1 127//1 129//1 
f 130//1 128//1 129//1 
f 130//1 129//1 131//1 
f 132//1 130//1 131//1 
f 132//1 131//1 133//1 
f 134//1 132//1 133//1 
f 134//1 133//1 135//1 
f 136//1 134//1 135//1 
f 136//1 135//1 99//1 
f 104//1 136//1 99//1 
f 104//1 99//1 101//1 
f 104//1 101//1 137//1 
f 104//1 137//1 138//1 
f 104//1 138//1 139//1 
f 104//1 139//1 140//1 
f 102//1 104//1 140//1 
f 141//1 142//1 143//1 
f 144//1 145//1 146//1 
f 147//1 144//1 146//1 
f 147//1 146//1 148//1 
f 149//1 147//1 148//1 
f 149//1 148//1 150//1 
f 151//1 149//1 150//1 
f 151//1 150//1 152//1 
f 153//1 151//1 152//1 
f 153//1 152//1 154//1 
f 155//1 153//1 154//1 
f 155//1 154//1 156//1 
f 157//1 155//1 156//1 
f 158//1 157//1 156//1 
f 158//1 156//1 159//1 
f 160//1 158//1 159//1 
f 160//1 159//1 161//1 
f 162//1 160//1 161//1 
f 162//1 161//1 163//1 
f 164//1 162//1 163//1 
f 164//1 163//1 165//1 
f 166//1 164//1 165//1 
f 166//1 165//1 167//1 
f 168//1 166//1 167//1 
f 168//1 167//1 169//1 
f 170//1 168//1 169//1 
f 170//1 169//1 171//1 
f 172//1 170//1 171//1 
f 172//1 171//1 173//1 
f 172//1 173//1 174//1 
f 172//1 174//1 175//1 
f 176//1 172//1 175//1 
f 176//1 175//1 177//1 
f 178//1 176//1 177//1 
f 178//1 177//1 179//1 
f 180//1 178//1 179//1 
f 181//1 180//1 179//1 
f 182//1 181//1 179//1 
f 182//1 179//1 183//1 
f 182//1 183//1 184//1 
f 185//1 182//1 184//1 
f 185//1 184//1 186//1 
f 185//1 186//1 187//1 
f 188//1 185//1 187//1 
f 188//1 187//1 189//1 
f 190//1 188//1 189//1 
f 190//1 189//1 191//1 
f 192//1 190//1 191//1 
f 192//1 191//1 193//1 
f 194//1 192//1 193//1 
f 194//1 193//1 195//1 
f 196//1 194//1 195//1 
f 197//1 196//1 195//1 
f 198//1 197//1 195//1 
f 199//1 198//1 195//1 
f 200//1 199//1 195//1 
f 200//1 195//1 201//1 
f 202//1 200//1 201//1 
f 202//1 201//1 203//1 
f 202//1 203//1 204//1 
f 143//1 202//1 204//1 
f 143//1 204//1 205//1 
f 143//1 205//1 206//1 
f 141//1 143//1 206//1 
f 207//1 208//1 209//1 
f 207//1 209//1 210//1 
f 211//1 207//1 210//1 
f 211//1 210//1 212//1 
f 213//1 214//1 215//1 
f 213//1 215//1 216//1 
f 213//1 216//1 217//1 
f 218//1 211//1 212//1 
f 218//1 212//1 219//1 
f 218//1 219//1 220//1 
f 221//1 218//1 220//1 
f 221//1 220//1 222//1 
f 223//1 221//1 222//1 
f 223//1 222//1 224//1 
f 225//1 223//1 224//1 
f 226//1 227//1 228//1 
f 229//1 226//1 228//1 
f 230//1 231//1 229//1 
f 232//1 230//1 229//1 
f 233//1 234//1 232//1 
f 235//1 233//1 232//1 
f 235//1 232//1 229//1 
f 235//1 229//1 228//1 
f 217//1 235//1 228//1 
f 217//1 228//1 236//1 
f 217//1 236//1 225//1 
f 217//1 225//1 224//1 
f 213//1 217//1 224//1 
f 213//1 224//1 237//1 
f 238//1 213//1 237//1 
# 0 polygons - 230 triangles

